<?xml version="1.0" encoding="UTF-8" standalone="no"?>
<!-- Created with Inkscape (http://www.inkscape.org/) -->

<svg
   version="1.1"
   id="svg1773"
   xml:space="preserve"
   width="682.66669"
   height="682.66669"
   viewBox="0 0 682.66669 682.66669"
   xmlns="http://www.w3.org/2000/svg"
   xmlns:svg="http://www.w3.org/2000/svg"><defs
     id="defs1777"><clipPath
       clipPathUnits="userSpaceOnUse"
       id="clipPath1787"><path
         d="M 0,512 H 512 V 0 H 0 Z"
         id="path1785" /></clipPath></defs><g
     id="g1779"
     transform="matrix(1.3333333,0,0,-1.3333333,0,682.66667)"><g
       id="g1781"><g
         id="g1783"
         clip-path="url(#clipPath1787)"><g
           id="g1789"
           transform="translate(456.7451,344.6802)"><path
             d="M 0,0 V 38.417 C 0,52.219 -11.189,63.409 -24.992,63.409 H -52.573"
             style="fill:none;stroke:#000000;stroke-width:15;stroke-linecap:round;stroke-linejoin:round;stroke-miterlimit:10;stroke-dasharray:none;stroke-opacity:1"
             id="path1791" /></g><g
           id="g1793"
           transform="translate(55.2549,264.7119)"><path
             d="m 0,0 v -148.405 c 0,-13.803 11.189,-24.992 24.992,-24.992 h 116.417 c 9.674,0 18.479,-5.582 22.605,-14.332 l 31.08,-65.896 c 2.253,-4.778 9.046,-4.785 11.299,-0.008 6.945,14.726 19.271,40.859 31.086,65.909 4.125,8.747 12.927,14.327 22.598,14.327 h 116.421 c 13.803,0 24.992,11.189 24.992,24.992 V 45.408"
             style="fill:none;stroke:#000000;stroke-width:15;stroke-linecap:round;stroke-linejoin:round;stroke-miterlimit:10;stroke-dasharray:none;stroke-opacity:1"
             id="path1795" /></g><g
           id="g1797"
           transform="translate(300.2803,408.0889)"><path
             d="m 0,0 h -220.033 c -13.803,0 -24.992,-11.189 -24.992,-24.992 v -80.736"
             style="fill:none;stroke:#000000;stroke-width:15;stroke-linecap:round;stroke-linejoin:round;stroke-miterlimit:10;stroke-dasharray:none;stroke-opacity:1"
             id="path1799" /></g><g
           id="g1801"
           transform="translate(222.7959,223.9473)"><path
             d="m 0,0 c 6.055,-9.724 9.553,-21.204 9.553,-33.502 0,-35.051 -28.415,-63.466 -63.467,-63.466 -35.052,0 -63.467,28.415 -63.467,63.466 0,35.052 28.415,63.467 63.467,63.467 9.964,0 19.393,-2.296 27.783,-6.388"
             style="fill:none;stroke:#000000;stroke-width:15;stroke-linecap:round;stroke-linejoin:round;stroke-miterlimit:10;stroke-dasharray:none;stroke-opacity:1"
             id="path1803" /></g><g
           id="g1805"
           transform="translate(143.5859,167.4912)"><path
             d="m 0,0 c 6.248,-6.886 15.265,-11.211 25.296,-11.211 10.03,0 19.048,4.325 25.296,11.211"
             style="fill:none;stroke:#000000;stroke-width:15;stroke-linecap:round;stroke-linejoin:round;stroke-miterlimit:10;stroke-dasharray:none;stroke-opacity:1"
             id="path1807" /></g><g
           id="g1809"
           transform="translate(394.9824,227.0356)"><path
             d="m 0,0 c 7.309,-10.341 11.603,-22.964 11.603,-36.59 0,-35.052 -28.415,-63.467 -63.467,-63.467 -35.052,0 -63.467,28.415 -63.467,63.467 0,35.051 28.415,63.466 63.467,63.466 8.762,0 17.111,-1.775 24.704,-4.987"
             style="fill:none;stroke:#000000;stroke-width:15;stroke-linecap:round;stroke-linejoin:round;stroke-miterlimit:10;stroke-dasharray:none;stroke-opacity:1"
             id="path1811" /></g><g
           id="g1813"
           transform="translate(143.3223,205.6509)"><path
             d="M 0,0 H 3.306"
             style="fill:none;stroke:#000000;stroke-width:15;stroke-linecap:round;stroke-linejoin:round;stroke-miterlimit:10;stroke-dasharray:none;stroke-opacity:1"
             id="path1815" /></g><g
           id="g1817"
           transform="translate(191.1348,205.6509)"><path
             d="M 0,0 H 3.307"
             style="fill:none;stroke:#000000;stroke-width:15;stroke-linecap:round;stroke-linejoin:round;stroke-miterlimit:10;stroke-dasharray:none;stroke-opacity:1"
             id="path1819" /></g><g
           id="g1821"
           transform="translate(368.4141,167.4912)"><path
             d="M 0,0 C -6.248,6.886 -15.265,11.211 -25.296,11.211 -35.326,11.211 -44.344,6.886 -50.592,0"
             style="fill:none;stroke:#000000;stroke-width:15;stroke-linecap:round;stroke-linejoin:round;stroke-miterlimit:10;stroke-dasharray:none;stroke-opacity:1"
             id="path1823" /></g><g
           id="g1825"
           transform="translate(317.5586,205.6509)"><path
             d="M 0,0 H 3.307"
             style="fill:none;stroke:#000000;stroke-width:15;stroke-linecap:round;stroke-linejoin:round;stroke-miterlimit:10;stroke-dasharray:none;stroke-opacity:1"
             id="path1827" /></g><g
           id="g1829"
           transform="translate(365.3721,205.6509)"><path
             d="M 0,0 H 3.306"
             style="fill:none;stroke:#000000;stroke-width:15;stroke-linecap:round;stroke-linejoin:round;stroke-miterlimit:10;stroke-dasharray:none;stroke-opacity:1"
             id="path1831" /></g><g
           id="g1833"
           transform="translate(105.415,362.481)"><path
             d="M 0,0 H 164.865"
             style="fill:none;stroke:#000000;stroke-width:15;stroke-linecap:round;stroke-linejoin:round;stroke-miterlimit:10;stroke-dasharray:none;stroke-opacity:1"
             id="path1835" /></g><g
           id="g1837"
           transform="translate(105.415,326.0967)"><path
             d="M 0,0 H 164.865"
             style="fill:none;stroke:#000000;stroke-width:15;stroke-linecap:round;stroke-linejoin:round;stroke-miterlimit:10;stroke-dasharray:none;stroke-opacity:1"
             id="path1839" /></g><g
           id="g1841"
           transform="translate(150.9756,289.7119)"><path
             d="M 0,0 H 119.305"
             style="fill:none;stroke:#000000;stroke-width:15;stroke-linecap:round;stroke-linejoin:round;stroke-miterlimit:10;stroke-dasharray:none;stroke-opacity:1"
             id="path1843" /></g><g
           id="g1845"
           transform="translate(105.415,289.7119)"><path
             d="M 0,0 H 14.899"
             style="fill:none;stroke:#000000;stroke-width:15;stroke-linecap:round;stroke-linejoin:round;stroke-miterlimit:10;stroke-dasharray:none;stroke-opacity:1"
             id="path1847" /></g><g
           id="g1849"
           transform="translate(368.666,342.814)"><path
             d="M 0,0 -49.528,26.475 19.92,156.398 c 2.603,4.871 8.662,6.709 13.533,4.105 l 31.89,-17.046 c 4.871,-2.603 6.709,-8.663 4.105,-13.533 z"
             style="fill:none;stroke:#000000;stroke-width:15;stroke-linecap:round;stroke-linejoin:round;stroke-miterlimit:10;stroke-dasharray:none;stroke-opacity:1"
             id="path1851" /></g><g
           id="g1853"
           transform="translate(319.1377,369.2886)"><path
             d="m 0,0 -10.519,-19.679 c -1.358,-2.541 -2.152,-5.346 -2.325,-8.223 l -2.477,-41.05 c -0.515,-8.532 9.219,-13.736 16.028,-8.568 l 32.757,24.865 c 2.295,1.742 4.187,3.96 5.546,6.502 l 10.518,19.678 z"
             style="fill:none;stroke:#000000;stroke-width:15;stroke-linecap:round;stroke-linejoin:round;stroke-miterlimit:10;stroke-dasharray:none;stroke-opacity:1"
             id="path1855" /></g><g
           id="g1857"
           transform="translate(375.1416,474.0601)"><path
             d="M 0,0 49.528,-26.475"
             style="fill:none;stroke:#000000;stroke-width:15;stroke-linecap:round;stroke-linejoin:round;stroke-miterlimit:10;stroke-dasharray:none;stroke-opacity:1"
             id="path1859" /></g></g></g></g></svg>
