<?xml version="1.0" encoding="UTF-8"?>
<svg xmlns="http://www.w3.org/2000/svg" xmlns:xlink="http://www.w3.org/1999/xlink" version="1.1" id="Capa_1" x="0px" y="0px" viewBox="0 0 512 512" style="enable-background:new 0 0 512 512;" xml:space="preserve" width="512" height="512">
<g>
	<g>
		<g>
			<path style="fill:none;stroke:#000000;stroke-width:30;stroke-linecap:round;stroke-linejoin:round;stroke-miterlimit:10;" d="&#10;&#9;&#9;&#9;&#9;M186.05,215.51v-16.9c0-16.85-6.83-32.11-17.87-43.15c-11.05-11.04-26.3-17.87-43.16-17.87c-33.7,0-61.02,27.32-61.02,61.02&#10;&#9;&#9;&#9;&#9;v16.93"/>
			
				<circle style="fill:none;stroke:#000000;stroke-width:30;stroke-linecap:round;stroke-linejoin:round;stroke-miterlimit:10;" cx="125.024" cy="106.294" r="31.294"/>
		</g>
		
			<circle style="fill:none;stroke:#000000;stroke-width:30;stroke-linecap:round;stroke-linejoin:round;stroke-miterlimit:10;" cx="125" cy="125" r="110"/>
	</g>
	<g>
		<g>
			<path style="fill:none;stroke:#000000;stroke-width:30;stroke-linecap:round;stroke-linejoin:round;stroke-miterlimit:10;" d="&#10;&#9;&#9;&#9;&#9;M448.05,477.51v-16.9c0-16.85-6.83-32.11-17.87-43.15c-11.05-11.04-26.3-17.87-43.16-17.87c-33.7,0-61.02,27.32-61.02,61.02&#10;&#9;&#9;&#9;&#9;v16.93"/>
			
				<circle style="fill:none;stroke:#000000;stroke-width:30;stroke-linecap:round;stroke-linejoin:round;stroke-miterlimit:10;" cx="387.024" cy="368.294" r="31.294"/>
		</g>
		
			<circle style="fill:none;stroke:#000000;stroke-width:30;stroke-linecap:round;stroke-linejoin:round;stroke-miterlimit:10;" cx="387" cy="387" r="110"/>
	</g>
	<path style="fill:none;stroke:#000000;stroke-width:30;stroke-linecap:round;stroke-linejoin:round;stroke-miterlimit:10;" d="&#10;&#9;&#9;M207.05,51.74C222.76,47.99,239.15,46,256,46c47.18,0,90.73,15.56,125.8,41.83"/>
	<path style="fill:none;stroke:#000000;stroke-width:30;stroke-linecap:round;stroke-linejoin:round;stroke-miterlimit:10;" d="&#10;&#9;&#9;M51.74,207.05C47.99,222.76,46,239.15,46,256c0,47.18,15.56,90.73,41.83,125.8"/>
	<path style="fill:none;stroke:#000000;stroke-width:30;stroke-linecap:round;stroke-linejoin:round;stroke-miterlimit:10;" d="&#10;&#9;&#9;M130.2,424.17C165.27,450.44,208.82,466,256,466c16.85,0,33.24-1.99,48.95-5.74"/>
	<path style="fill:none;stroke:#000000;stroke-width:30;stroke-linecap:round;stroke-linejoin:round;stroke-miterlimit:10;" d="&#10;&#9;&#9;M424.17,130.2C450.44,165.27,466,208.82,466,256c0,16.85-1.99,33.24-5.74,48.95"/>
	
		<circle style="fill:none;stroke:#000000;stroke-width:30;stroke-linecap:round;stroke-linejoin:round;stroke-miterlimit:10;" cx="404" cy="108" r="30"/>
	
		<circle style="fill:none;stroke:#000000;stroke-width:30;stroke-linecap:round;stroke-linejoin:round;stroke-miterlimit:10;" cx="108" cy="404" r="30"/>
</g>















</svg>
