<svg height="512" viewBox="0 0 24 24" width="512" xmlns="http://www.w3.org/2000/svg"><g id="Chat"><circle cx="12" cy="12" r="1"/><circle cx="17" cy="12" r="1"/><circle cx="7" cy="12" r="1"/><path d="m12 1a10.9889 10.9889 0 0 0 -9.458 16.6025l-.5342 4.2735a1.0007 1.0007 0 0 0 .9922 1.124.9781.9781 0 0 0 .2427-.03l4.0805-1.02a10.8582 10.8582 0 0 0 4.6768 1.05 11 11 0 0 0 0-22zm0 20a8.8918 8.8918 0 0 1 -4.106-.999 1.0008 1.0008 0 0 0 -.4575-.11.9787.9787 0 0 0 -.2427.03l-3.02.7549.3962-3.1749a.9973.9973 0 0 0 -.15-.6631 8.9939 8.9939 0 1 1 7.58 4.1621z"/></g></svg>