<svg width="24" height="24" viewBox="0 0 24 24" fill="none" xmlns="http://www.w3.org/2000/svg">
<path d="M16.2803 7.28033C16.5732 6.98744 16.5732 6.51256 16.2803 6.21967C15.9874 5.92678 15.5126 5.92678 15.2197 6.21967L16.2803 7.28033ZM9.75 12.75L9.21967 12.2197C8.92678 12.5126 8.92678 12.9874 9.21967 13.2803L9.75 12.75ZM15.2197 19.2803C15.5126 19.5732 15.9874 19.5732 16.2803 19.2803C16.5732 18.9874 16.5732 18.5126 16.2803 18.2197L15.2197 19.2803ZM15.2197 6.21967L9.21967 12.2197L10.2803 13.2803L16.2803 7.28033L15.2197 6.21967ZM9.21967 13.2803L15.2197 19.2803L16.2803 18.2197L10.2803 12.2197L9.21967 13.2803Z" fill="#141416"/>
</svg>
