<svg width="198" height="123" viewBox="0 0 198 123" fill="none" xmlns="http://www.w3.org/2000/svg">
<path d="M107.719 2.12145C102.994 7.52146 104.175 17.6143 109.857 20.7643L111.938 21.9858V31.3715C111.882 38.3787 111.713 41.2715 111.094 42.4287C110.532 43.5215 110.307 46.093 110.25 50.2715V56.5716H112.5H114.75V50.7858C114.75 46.8001 114.469 44.3572 113.907 43.0072C113.288 41.6572 112.95 38.3144 112.725 31.5644L112.388 22.0501L114.525 20.8286C120.263 17.6143 121.444 7.52146 116.719 2.12145C115.144 0.321446 114.469 1.9128e-05 112.219 1.9128e-05C109.969 1.9128e-05 109.294 0.321446 107.719 2.12145ZM111.938 1.28574C111.938 1.60716 111.432 1.92859 110.757 1.92859C110.138 1.92859 109.8 1.60716 109.969 1.28574C110.138 0.900019 110.7 0.642877 111.15 0.642877C111.6 0.642877 111.938 0.900019 111.938 1.28574ZM114.188 1.28574C114.188 1.60716 113.963 1.92859 113.625 1.92859C113.344 1.92859 113.063 1.60716 113.063 1.28574C113.063 0.900019 113.344 0.642877 113.625 0.642877C113.963 0.642877 114.188 0.900019 114.188 1.28574ZM109.125 3.53574C109.125 4.05002 108.732 4.50003 108.282 4.50003C107.382 4.50003 107.157 3.7286 107.832 3.02145C108.45 2.25002 109.125 2.50717 109.125 3.53574ZM111.938 3.53574C111.938 4.05002 111.432 4.50003 110.813 4.50003C109.688 4.50003 109.35 3.79288 110.082 3.02145C110.757 2.18574 111.938 2.57145 111.938 3.53574ZM114.638 3.7286C114.75 4.1786 114.3 4.50003 113.682 4.50003C112.5 4.50003 112.163 3.79288 112.894 2.95717C113.4 2.3786 114.357 2.82859 114.638 3.7286ZM116.888 3.7286C117 4.1786 116.719 4.50003 116.213 4.50003C115.707 4.50003 115.313 4.05002 115.313 3.47145C115.313 2.3786 116.55 2.57145 116.888 3.7286ZM109.125 6.4286C109.125 6.75003 108.732 7.07146 108.282 7.07146C107.832 7.07146 107.438 6.75003 107.438 6.4286C107.438 6.04289 107.832 5.78574 108.282 5.78574C108.732 5.78574 109.125 6.04289 109.125 6.4286ZM111.938 6.4286C111.938 6.75003 111.432 7.07146 110.813 7.07146C110.194 7.07146 109.688 6.75003 109.688 6.4286C109.688 6.04289 110.194 5.78574 110.813 5.78574C111.432 5.78574 111.938 6.04289 111.938 6.4286ZM114.75 6.4286C114.75 6.75003 114.244 7.07146 113.625 7.07146C113.007 7.07146 112.5 6.75003 112.5 6.4286C112.5 6.04289 113.007 5.78574 113.625 5.78574C114.244 5.78574 114.75 6.04289 114.75 6.4286ZM117 6.4286C117 6.75003 116.607 7.07146 116.157 7.07146C115.707 7.07146 115.313 6.75003 115.313 6.4286C115.313 6.04289 115.707 5.78574 116.157 5.78574C116.607 5.78574 117 6.04289 117 6.4286ZM106.144 9.12861C105.975 9.64289 105.807 9.45004 105.807 8.74289C105.75 8.03575 105.919 7.65003 106.088 7.90718C106.257 8.10003 106.313 8.67861 106.144 9.12861ZM109.125 8.67861C109.125 9.19289 108.788 9.64289 108.338 9.64289C107.382 9.64289 106.763 8.74289 107.269 8.10003C107.944 7.3286 109.125 7.71432 109.125 8.67861ZM111.938 8.67861C111.938 9.19289 111.432 9.64289 110.813 9.64289C109.688 9.64289 109.35 8.93575 110.082 8.16432C110.757 7.3286 111.938 7.71432 111.938 8.67861ZM114.469 8.29289C114.863 9.06432 113.794 9.83575 113.063 9.32146C112.444 8.87146 112.838 7.71432 113.625 7.71432C113.907 7.71432 114.244 7.97146 114.469 8.29289ZM117 8.67861C117 9.19289 116.607 9.64289 116.157 9.64289C115.707 9.64289 115.313 9.19289 115.313 8.67861C115.313 8.16432 115.707 7.71432 116.157 7.71432C116.607 7.71432 117 8.16432 117 8.67861ZM118.688 8.74289C118.688 9.25718 118.407 9.51432 118.125 9.32146C117.788 9.06432 117.675 8.61432 117.844 8.29289C118.35 7.39289 118.688 7.58575 118.688 8.74289ZM106.313 11.3143C106.313 11.8286 106.032 12.0858 105.75 11.8929C105.413 11.6358 105.3 11.1858 105.469 10.8643C105.975 9.96432 106.313 10.1572 106.313 11.3143ZM109.125 11.25C109.125 11.7643 108.732 12.2143 108.282 12.2143C107.832 12.2143 107.438 11.7643 107.438 11.25C107.438 10.7358 107.832 10.2858 108.282 10.2858C108.732 10.2858 109.125 10.7358 109.125 11.25ZM111.938 11.25C111.938 11.7643 111.432 12.2143 110.813 12.2143C109.688 12.2143 109.35 11.5072 110.082 10.7358C110.757 9.90004 111.938 10.2858 111.938 11.25ZM114.638 11.4429C114.75 11.8929 114.3 12.2143 113.682 12.2143C112.5 12.2143 112.163 11.5072 112.894 10.6715C113.4 10.0929 114.357 10.5429 114.638 11.4429ZM117 11.25C117 11.7643 116.607 12.2143 116.157 12.2143C115.707 12.2143 115.313 11.7643 115.313 11.25C115.313 10.7358 115.707 10.2858 116.157 10.2858C116.607 10.2858 117 10.7358 117 11.25ZM118.519 11.7C118.35 12.2143 118.182 12.0215 118.182 11.3143C118.125 10.6072 118.294 10.2215 118.463 10.4786C118.632 10.6715 118.688 11.25 118.519 11.7ZM106.144 14.2715C105.975 14.7858 105.807 14.5929 105.807 13.8858C105.75 13.1786 105.919 12.7929 106.088 13.05C106.257 13.2429 106.313 13.8215 106.144 14.2715ZM109.013 13.95C108.732 15.5572 107.438 15.75 107.438 14.2072C107.438 13.4358 107.775 12.8572 108.338 12.8572C108.844 12.8572 109.125 13.3072 109.013 13.95ZM111.938 14.1429C111.938 14.85 111.6 15.4286 111.15 15.4286C110.138 15.4286 109.519 14.4 109.969 13.5C110.588 12.3429 111.938 12.7929 111.938 14.1429ZM114.525 13.5643C115.088 14.6572 113.794 15.8786 113.007 14.9786C112.332 14.2072 112.782 12.8572 113.625 12.8572C113.907 12.8572 114.3 13.1786 114.525 13.5643ZM117 14.1429C117 14.85 116.607 15.4286 116.157 15.4286C115.707 15.4286 115.313 14.85 115.313 14.1429C115.313 13.4358 115.707 12.8572 116.157 12.8572C116.607 12.8572 117 13.4358 117 14.1429ZM109.125 17.0358C109.125 17.5501 108.732 18.0001 108.282 18.0001C107.832 18.0001 107.438 17.5501 107.438 17.0358C107.438 16.5215 107.832 16.0715 108.282 16.0715C108.732 16.0715 109.125 16.5215 109.125 17.0358ZM111.938 17.0358C111.938 17.5501 111.432 18.0001 110.813 18.0001C110.194 18.0001 109.688 17.5501 109.688 17.0358C109.688 16.5215 110.194 16.0715 110.813 16.0715C111.432 16.0715 111.938 16.5215 111.938 17.0358ZM114.469 16.6501C114.863 17.4215 113.794 18.1929 113.063 17.6786C112.444 17.2286 112.838 16.0715 113.625 16.0715C113.907 16.0715 114.244 16.3286 114.469 16.6501ZM117 17.0358C117 17.5501 116.607 18.0001 116.157 18.0001C115.707 18.0001 115.313 17.5501 115.313 17.0358C115.313 16.5215 115.707 16.0715 116.157 16.0715C116.607 16.0715 117 16.5215 117 17.0358ZM111.938 19.6072C111.938 20.1215 111.6 20.5715 111.15 20.5715C110.194 20.5715 109.575 19.6715 110.082 19.0286C110.757 18.2572 111.938 18.6429 111.938 19.6072ZM114.469 19.2215C114.863 19.9929 113.794 20.7643 113.063 20.2501C112.444 19.8001 112.838 18.6429 113.625 18.6429C113.907 18.6429 114.244 18.9001 114.469 19.2215ZM113.288 43.393C113.513 44.0358 113.232 44.3572 112.5 44.3572C111.375 44.3572 111.038 43.6501 111.769 42.8787C112.332 42.1715 112.894 42.3644 113.288 43.393ZM113.625 46.9287C113.625 47.6358 113.288 48.2144 112.95 48.2787C112.388 48.2787 112.388 48.4072 112.95 48.6644C113.288 48.793 113.625 49.3715 113.625 49.8215C113.625 50.2715 113.288 50.8501 112.95 50.9787C112.388 51.2358 112.444 51.493 113.063 52.0073C113.794 52.6501 113.794 52.7787 113.063 53.3573C112.5 53.743 112.444 54.0001 112.95 54.0001C113.288 54.0001 113.625 54.4501 113.625 55.0287C113.625 55.6715 113.232 55.9287 112.388 55.8001C111.207 55.6073 111.094 55.2215 110.925 50.593C110.757 45.643 110.757 45.643 112.219 45.643C113.232 45.643 113.625 45.9644 113.625 46.9287Z" fill="black"/>
<path d="M102.038 13.5643C101.869 13.95 101.082 14.0786 100.35 13.8858C99.5066 13.6286 98.8879 13.8215 98.5504 14.5286C98.1004 15.4286 97.7066 15.4929 96.2441 14.9143C94.6128 14.2715 94.3878 14.3358 93.8253 15.75C93.2628 17.2286 93.1503 17.2286 91.8566 16.2643C90.5066 15.2358 90.3941 15.2358 89.4378 16.6501C88.6503 17.9358 88.3128 18.0643 87.3003 17.4215C85.6128 16.3929 85.0503 16.5215 84.6566 18.0643C84.3191 19.2215 83.9816 19.3501 82.3503 18.9643C80.8316 18.6429 80.4378 18.7715 80.4378 19.6072C80.4378 20.4429 80.0441 20.5715 78.4691 20.1858C76.7253 19.8001 76.5003 19.9286 76.5003 21.2143C76.5003 23.5929 79.4816 29.6358 81.8441 32.0786C84.8253 35.0358 90.2253 45.5787 91.1253 50.0787C92.0253 54.5144 93.8253 56.5716 96.8628 56.5716C100.069 56.5716 102.375 53.8073 102.375 50.0144C102.375 48.4715 102.15 46.3501 101.925 45.3215C101.194 42.3644 102.15 30.4072 103.444 26.1001C104.85 21.6001 104.963 17.3572 103.782 14.7858C102.825 12.6643 102.6 12.5358 102.038 13.5643ZM101.7 15.0429C102.488 13.3715 103.388 14.4643 103.838 17.7429C104.119 20.0572 103.894 21.8572 102.657 26.1001C101.813 29.0572 100.913 31.5001 100.632 31.5001C99.9566 31.5001 99.9566 23.4001 100.632 20.7643C100.913 19.6072 100.969 18.5143 100.688 18.3215C100.069 17.8715 99.0566 26.8072 99.3941 29.7001C99.6191 31.7572 99.5066 32.1429 98.6066 32.1429C96.7503 32.1429 95.4566 24.1072 96.7503 20.3143C97.0878 19.2858 97.0878 18.6429 96.7503 18.6429C95.5128 18.6429 95.3441 25.5858 96.5253 30.9858C97.1441 33.9429 95.7941 33.1072 94.4441 29.7001C93.8253 28.0286 93.0941 25.2001 92.8128 23.4643L92.3628 20.2501L92.3066 23.1429C92.3066 24.8144 92.7566 27.2572 93.3753 28.8644C94.7816 32.2715 94.7816 33.4287 93.5441 33.4287C92.0253 33.4287 90.0566 29.5715 89.1566 25.0072C88.4816 21.3429 88.4253 21.1501 88.3691 23.4643C88.3691 26.4215 89.4941 30.4072 90.7878 32.0786C91.8566 33.3644 91.9128 34.0715 91.0691 34.0715C90.3378 34.0715 87.6941 30.5358 86.7941 28.3501C86.4003 27.4501 86.1191 25.6501 86.0628 24.4929C86.0628 22.8215 85.8941 22.4358 85.4441 22.9501C84.5441 23.9786 86.2878 30.2786 88.0316 32.1429C89.6066 33.8787 89.8316 34.7144 88.5941 34.7144C87.4128 34.7144 84.0378 30.4072 82.6316 27.1286C81.9566 25.5858 81.3378 24.4929 81.1691 24.6215C80.6628 25.2644 82.6878 29.5715 84.6566 32.0786C87.6941 35.8715 86.6816 36.0644 83.2503 32.3358C80.5503 29.4429 78.9191 26.6786 77.6253 22.7572C77.0628 21.2143 77.1753 21.1501 78.7503 21.3429C79.8191 21.4715 80.6628 21.1501 80.9441 20.6358C81.2816 20.0572 81.9566 19.8643 82.7441 20.1215C83.7566 20.4429 84.3191 20.1858 85.0503 19.0929C85.9503 17.7429 86.0628 17.6786 87.6378 18.7715C89.3253 19.9286 89.3253 19.9286 89.6628 18.3215C90.0566 16.5215 91.1816 16.2643 92.2503 17.6786C93.2628 19.0286 93.7691 18.9001 94.1628 17.0358C94.5566 15.1715 95.4003 15.0429 97.2003 16.4572C98.2128 17.2286 98.4379 17.2286 98.4379 16.5858C98.4379 16.0715 98.7754 15.3 99.1129 14.9143C99.6754 14.2715 99.9566 14.3358 100.463 15.1072C101.082 16.0715 101.194 16.0715 101.7 15.0429ZM101.25 35.0358C101.25 36.2572 101.025 37.2858 100.688 37.2858C100.407 37.2858 100.125 36.2572 100.125 35.0358C100.125 33.8144 100.407 32.7858 100.688 32.7858C101.025 32.7858 101.25 33.8144 101.25 35.0358ZM97.3128 36.7715C97.3128 37.8001 97.0878 38.5715 96.8066 38.5715C96.1878 38.5715 95.5128 34.7787 95.9628 33.9429C96.4691 32.9787 97.3128 34.7144 97.3128 36.7715ZM99.5629 34.2001C99.5629 35.8072 98.8879 37.9287 98.3816 37.9287C98.1004 37.9287 97.8753 36.9001 97.8753 35.6787C97.8753 34.1358 98.1566 33.4287 98.7191 33.4287C99.1691 33.4287 99.5629 33.8144 99.5629 34.2001ZM95.1753 36.9001C95.4003 39.4715 94.2191 39.7287 93.4316 37.2215C92.9253 35.6144 92.9816 35.0358 93.4878 34.6501C94.4441 33.9429 94.9503 34.6501 95.1753 36.9001ZM92.7003 37.2858C93.0941 38.3787 93.0941 39.2144 92.8128 39.2144C92.1378 39.2144 90.5066 35.6144 90.9566 35.1644C91.5191 34.5215 92.0816 35.2287 92.7003 37.2858ZM90.4503 36.9644C91.2941 39.0215 91.2941 39.8572 90.5628 39.8572C89.8878 39.8572 88.2566 36.3215 88.7066 35.7429C89.3816 35.0358 89.8316 35.3572 90.4503 36.9644ZM88.8753 39.7929C88.8191 40.5644 88.5941 40.5001 87.7503 39.2787C87.1316 38.4429 86.6253 37.2858 86.6253 36.7072C86.6816 35.9358 86.9066 36.0001 87.7503 37.2215C88.3691 38.0572 88.8753 39.2144 88.8753 39.7929ZM98.8316 41.9144C98.7191 42.7501 98.6066 42.2358 98.6066 40.8215C98.5504 39.4072 98.6629 38.7644 98.8316 39.3429C98.9441 39.9858 98.9441 41.143 98.8316 41.9144ZM100.519 41.9144C100.407 42.7501 100.294 42.2358 100.294 40.8215C100.238 39.4072 100.35 38.7644 100.519 39.3429C100.632 39.9858 100.632 41.143 100.519 41.9144ZM97.8191 42.6215C97.8753 43.2644 97.6504 43.5858 97.3128 43.393C97.0316 43.2001 96.7503 42.043 96.8066 40.9501C96.8066 39.2144 96.9191 39.0858 97.3128 40.1787C97.5941 40.8858 97.8191 41.9787 97.8191 42.6215ZM95.8503 40.8858C96.0191 41.4644 96.1878 42.493 96.1878 43.2644C96.1878 45.0001 95.3441 43.9715 94.8378 41.593C94.4441 39.7287 95.2878 39.1501 95.8503 40.8858ZM92.5316 42.4287C93.5441 44.6144 93.5441 45.0001 92.8128 45.0001C92.1378 45.0001 90.5066 41.4644 90.9566 40.8858C91.5191 40.3072 91.5753 40.3715 92.5316 42.4287ZM94.1628 41.9144C94.7253 44.3572 94.5003 44.8072 93.6566 43.0715C92.7003 41.2072 92.6441 40.5001 93.3191 40.5001C93.6003 40.5001 93.9378 41.143 94.1628 41.9144ZM90.4503 42.7501C91.4066 45.193 91.2378 45.5144 90.0003 43.7144C88.8191 41.9787 88.5941 41.143 89.3253 41.143C89.6066 41.143 90.1128 41.8501 90.4503 42.7501ZM100.744 45.3215C100.744 46.093 92.8691 48.343 91.8566 47.893C90.2816 47.2501 91.2941 46.3501 94.6691 45.3858C98.4941 44.3572 100.688 44.293 100.744 45.3215ZM101.7 49.693C101.869 51.6215 101.588 52.4573 100.182 54.0001C97.0878 57.5358 92.8128 55.6715 92.1378 50.4644C91.9691 49.4358 92.5878 49.0501 95.9066 48.1501C101.138 46.6715 101.475 46.8001 101.7 49.693Z" fill="black"/>
<path d="M99.7313 50.7858C99.3938 51.8786 99.3376 52.7144 99.6188 52.7144C100.125 52.7144 100.969 49.6286 100.575 49.1786C100.463 49.0501 100.069 49.7572 99.7313 50.7858Z" fill="black"/>
<path d="M96.1873 53.3572C96.1873 53.6786 96.4123 54 96.6935 54C97.031 54 97.4248 53.6786 97.5935 53.3572C97.7623 52.9714 97.5373 52.7143 97.0873 52.7143C96.581 52.7143 96.1873 52.9714 96.1873 53.3572Z" fill="black"/>
<path d="M72.7314 64.8643C71.4376 65.5715 70.1439 66.7286 69.7501 67.5C68.9626 69.1072 69.5814 74.25 70.6501 75.5358C71.1001 75.9858 71.4376 76.95 71.4376 77.6572C71.4376 78.6858 71.0439 78.4929 69.3001 76.5C68.0064 74.9572 66.2064 73.7358 64.6876 73.2858C59.5689 71.6786 52.6501 73.9286 50.7376 77.8501C50.2313 78.8786 49.6688 79.7143 49.5001 79.7143C49.3313 79.7143 48.7126 78.8786 48.0938 77.8501C46.1813 74.5072 43.0313 72.9643 38.2501 72.9643C34.6501 72.9643 33.6376 73.2215 31.3876 74.7643C29.8688 75.7286 28.6876 76.7572 28.6876 77.0143C28.6876 77.2715 28.1813 78.1715 27.5626 79.0715L26.4375 80.6786L27 78.4286C28.1813 73.8643 26.2688 68.7215 22.5563 66.5357C19.0125 64.4786 6.75001 64.8643 1.9125 67.1786C0.0562501 68.0786 0 68.1429 0 72C0 75.2786 0.225 76.1143 1.35 77.3358C2.5875 78.6858 2.64375 79.2643 2.92501 89.4858C3.26251 102.214 3.60001 103.179 7.65001 103.886C9.11252 104.143 12.2625 104.143 14.7375 103.95C19.8 103.564 24.5813 101.314 26.1563 98.6144L27.1126 96.9429L28.4063 99.1929C32.2313 105.622 42.2438 105.686 47.1376 99.3215L49.3313 96.4929L50.6813 98.8072C54.3938 105.3 63.7876 105.879 69.0189 99.9001L71.4376 97.1358L71.7751 98.8715C72.3376 102.022 72.5064 102.279 74.5314 103.179C77.2876 104.529 78.4126 104.4 80.3814 102.472L82.1251 100.8L83.5314 102.15C86.6252 104.85 90.6189 104.593 93.2064 101.572L94.8377 99.7072L96.3564 101.572C99.0564 104.85 103.163 104.914 106.819 101.764C108.563 100.222 108.731 100.157 109.238 101.186C109.969 102.664 113.063 104.143 115.425 104.143C116.438 104.143 118.181 103.629 119.25 102.922C121.106 101.764 121.219 101.764 122.906 102.922C123.806 103.629 125.325 104.143 126.169 104.143C128.025 104.143 131.456 102.6 132.863 101.122C133.819 100.157 133.988 100.157 135.507 101.829C137.756 104.336 140.794 104.657 144.338 102.922C145.857 102.15 147.6 100.929 148.275 100.222L149.457 98.9358L151.2 100.8C154.519 104.336 160.65 105.043 165.207 102.407C166.388 101.7 168.244 99.7715 169.313 98.1644L171.282 95.1429L171.45 97.2001C171.732 101.379 172.125 102.279 174.094 103.243C176.682 104.464 179.382 104.4 181.744 102.986C183.713 101.829 183.825 101.829 185.682 102.986C187.932 104.336 190.069 104.464 192.544 103.243C194.344 102.407 198 98.2287 198 97.0072C198 95.7858 196.482 92.2501 195.638 91.4144C194.963 90.7715 194.85 90.0644 195.244 88.2001C196.482 82.1572 195.357 76.95 192.319 74.3786C190.125 72.5786 186.357 72.3215 183.882 73.8C181.913 74.9572 181.8 74.9572 179.944 73.8C178.932 73.1572 177.413 72.6429 176.625 72.6429C174.319 72.6429 171 73.9286 169.875 75.2143C168.807 76.4358 168.75 76.4358 166.782 74.8929C162.957 72 156.994 72 152.494 74.9572C150.525 76.1786 149.907 76.3715 149.513 75.7286C149.288 75.2786 149.063 74.7 149.063 74.3786C149.063 74.1215 148.444 73.5429 147.657 73.1572C146.869 72.7715 146.25 71.9358 146.25 71.2929C146.25 69.4929 144 68.1429 141.019 68.1429C137.419 68.1429 135.056 69.5572 134.606 72.0643C134.438 73.1572 133.706 74.4429 132.975 75.0215C131.794 75.9215 131.513 75.8572 129.881 74.5715C127.406 72.5143 123.75 72.1929 121.106 73.7358C119.025 74.9572 118.913 74.9572 117.281 73.8C115.144 72.3215 112.275 72.3215 109.294 73.9286C107.944 74.5715 106.875 74.8929 106.875 74.5715C106.875 74.25 107.156 73.8 107.438 73.6072C108.225 73.0929 108.169 69.2358 107.325 67.1786C106.931 66.2143 105.975 65.0572 105.131 64.5429C103.219 63.45 99.0002 63.3857 97.0314 64.4143C94.4439 65.7643 93.1502 70.3929 94.5002 73.2858C95.4002 75.15 94.2752 75.4072 91.6877 73.8643C90.0002 72.8358 88.7627 72.5786 87.1877 72.8358C84.9939 73.1572 84.9377 73.0929 84.6002 70.8429C84.0939 67.5 82.9126 65.6357 80.7189 64.5429C78.1314 63.3215 75.5439 63.45 72.7314 64.8643ZM103.613 66.9857C105.075 69.6215 102.994 72.9 99.8439 72.9C96.6939 72.9 94.6127 69.6215 96.1314 66.9857C97.2002 64.9929 102.488 64.9929 103.613 66.9857ZM79.2001 66.6C80.3251 67.4357 80.4376 68.1429 80.4376 72.7715C80.4376 75.6 80.0439 80.8072 79.5376 84.3429C79.0314 87.8786 78.8064 90.9001 78.9189 91.0929C79.3127 91.4786 81.9564 86.7215 83.0252 83.7643C83.7564 81.9001 83.7564 81.5786 82.9689 81.2572C82.4627 81.0001 82.1251 80.0358 82.1251 78.6858C82.1251 76.95 82.4627 76.3715 83.8127 75.5358C86.0627 74.1858 87.8627 74.3143 89.6627 75.9215C92.0252 78.0429 91.6314 79.9072 87.5814 86.0144L85.3314 89.4215L86.5127 90.7715C87.6377 92.1215 87.7502 92.1215 88.7627 91.0929C89.7752 90.0644 89.8877 90.0644 90.8439 91.2858C91.5752 92.1858 91.7439 93.0858 91.4627 94.6929C90.7314 99.2572 86.5127 100.8 83.9814 97.4572C83.3064 96.4929 82.6877 95.2715 82.6877 94.7572C82.6877 93.3429 82.1814 93.6644 79.2001 96.8144C77.0626 99.1287 76.2189 99.6429 75.2064 99.2572C74.5314 99.0644 73.8564 98.6787 73.6876 98.5501C73.5189 98.3572 73.3501 92.4429 73.2376 85.3072C73.1814 75.6 72.9564 72.2572 72.3939 72.0643C71.4376 71.6786 70.8751 70.65 70.8751 68.9786C70.8751 66.0857 76.5564 64.4786 79.2001 66.6ZM18.6188 67.5C23.7938 69.1715 24.9188 75.5358 20.925 81.0001L19.2938 83.1858L21.0375 84.2143C23.2875 85.5001 24.3 87.7501 23.9625 90.8358C23.3438 96.7501 19.575 99.1929 11.1375 99.2572C8.10001 99.2572 5.45626 99.0644 5.28751 98.8072C5.06251 98.5501 4.72501 92.8287 4.61251 86.1429C4.38751 74.7 4.27501 73.9286 3.26251 73.9286C2.25 73.9286 1.125 71.7429 1.125 69.75C1.125 67.6929 14.0063 66.0215 18.6188 67.5ZM142.313 72.6429C142.313 75.0858 142.425 75.2143 144 75.2143C145.969 75.2143 146.644 77.0786 145.744 79.9072C145.294 81.2572 144.788 81.6429 143.55 81.6429C141.919 81.6429 141.863 81.7715 141.525 85.6286C141.3 87.8786 140.963 90.3858 140.794 91.2215C140.513 92.6358 140.625 92.7001 141.807 92.3144C145.632 91.1572 145.519 91.0929 146.138 93.0858C146.813 95.2715 146.25 96.1072 143.157 97.9072C139.725 99.8358 137.982 99.9001 136.407 98.1001C135.056 96.5572 135 96.1715 135 89.0358C135 82.0929 134.944 81.5143 133.875 81.1929C132.188 80.6786 132.244 76.6929 133.988 76.3715C134.888 76.2429 135.338 75.6 135.619 74.1858C136.294 70.2643 136.463 70.0715 139.5 70.0715H142.313V72.6429ZM42.6376 76.2429C45.0563 78.3001 46.1251 81.3858 46.1251 86.4644C46.1251 91.9929 44.5501 96.1072 41.6813 97.9715C39.1501 99.6429 33.6376 99.6429 31.5563 97.9072C29.1376 95.9144 27.5626 91.6072 27.5626 87.0429C27.5626 80.8715 29.1938 77.4001 32.9063 75.4715C35.3251 74.1858 40.6688 74.6358 42.6376 76.2429ZM64.0689 75.7286C67.5564 77.7215 68.3439 79.6501 68.3439 86.3358C68.3439 93.0858 67.4439 95.5287 64.1814 97.8429C61.7064 99.5787 56.5314 99.6429 54.0564 97.9715C50.0626 95.2715 48.5438 85.6286 51.1313 79.8429C53.2689 75.0858 59.6251 73.0929 64.0689 75.7286ZM102.994 75.9215C104.063 77.1429 104.175 77.7858 103.838 81.5786C103.669 83.8929 103.106 87.4286 102.656 89.3572C102.206 91.2858 101.925 92.9572 102.094 93.0858C102.206 93.2144 102.769 93.0215 103.444 92.6358C104.344 92.0572 104.681 92.1215 105.188 93.1501C106.088 95.2072 105.863 96.2358 104.063 97.7144C101.644 99.7072 98.6064 99.7072 97.2002 97.7144C96.1877 96.3001 96.1314 95.5287 96.4689 88.9715C96.8627 82.0286 96.8627 81.7715 95.6814 81.3215C95.0627 81.1286 94.5002 80.5501 94.5002 80.0358C94.5002 79.5858 94.3314 78.7501 94.1627 78.1715C93.7127 76.7572 97.0877 74.5715 99.7314 74.5715C101.081 74.5715 102.206 75.0215 102.994 75.9215ZM115.369 75.9215C116.381 77.0786 116.494 77.7858 116.213 80.4215C115.988 82.1572 115.706 84.0215 115.538 84.5358C115.313 85.0501 115.481 85.5001 115.819 85.5001C116.1 85.5001 116.663 84.2786 117.056 82.7358C118.575 76.05 122.119 73.1572 126.169 75.2786C126.956 75.6643 127.856 76.6929 128.194 77.5929C129.038 79.7786 128.981 84.7286 127.969 88.4572C126.788 92.8929 126.844 93.4072 128.363 92.5072C129.375 91.8644 129.713 91.9929 130.331 92.9572C131.344 94.5644 131.231 95.3358 129.825 96.9429C127.181 99.7072 123.356 99.9644 121.894 97.5215C121.669 97.0715 121.5 93.8572 121.613 90.3215C121.725 82.7358 121.05 81.9643 118.519 87.1072C117.225 89.8715 117 90.9644 117.113 94.5001L117.281 98.6144L115.313 99.1929C114.019 99.5144 112.669 99.4501 111.713 99.0001L110.138 98.3572L110.363 90.0001C110.531 82.6072 110.419 81.6429 109.631 81.6429C107.606 81.6429 107.325 76.1143 109.294 75.2143C111.544 74.1858 114.131 74.5072 115.369 75.9215ZM164.138 76.2429C166.557 78.3001 167.625 81.3858 167.625 86.4001C167.625 94.9501 164.363 99.2572 157.95 99.1929C154.294 99.1287 152.663 98.1644 150.525 94.8858C149.625 93.5358 149.288 91.9286 149.175 87.8144C148.894 81.0001 150.132 77.7215 153.732 75.7929C156.769 74.1858 161.888 74.3786 164.138 76.2429ZM178.032 75.8572C178.875 76.95 178.988 77.7858 178.65 81.6429C178.482 84.0858 178.425 86.1429 178.594 86.1429C178.707 86.1429 179.269 84.4715 179.775 82.4786C181.013 77.5929 183.6 74.5715 186.413 74.5715C189 74.5715 191.025 76.6929 191.532 79.9715C191.925 82.0286 190.913 88.8429 189.844 92.1215C189.507 93.0858 189.619 93.1501 190.857 92.6358C193.782 91.3501 194.457 95.5287 191.757 97.8429C189.844 99.4501 186.469 99.6429 185.175 98.1644C184.388 97.2001 184.219 95.9787 184.388 90.3215C184.613 82.0929 183.769 81.3858 181.069 87.4929C179.382 91.4144 179.269 92.9572 180.338 97.2001C180.732 98.6787 176.963 100.029 174.882 99.1287C173.644 98.5501 173.363 97.9715 173.082 95.1429C172.913 93.3429 172.857 89.5501 173.082 86.7215C173.363 82.2215 173.307 81.6429 172.463 81.6429C171.507 81.6429 170.438 79.2643 170.438 77.1429C170.438 74.7 176.344 73.6715 178.032 75.8572ZM25.9313 83.3786C25.4813 84.3429 25.3688 84.3429 25.3125 83.5072C25.3125 82.4143 25.875 81.4501 26.325 81.9001C26.4375 82.0929 26.2688 82.7358 25.9313 83.3786ZM94.9502 87.7501C94.8377 90.1286 93.9939 90.6429 92.8689 89.1001C92.0252 87.9429 92.9814 85.5001 94.2752 85.5001C94.8939 85.5001 95.0627 86.1429 94.9502 87.7501ZM108.563 88.8429C108.563 91.8001 108.45 92.1215 107.719 91.2858C107.156 90.5786 106.988 89.6144 107.269 87.8786C107.719 84.4072 108.563 84.9858 108.563 88.8429ZM147.263 87.5572C146.982 89.6144 145.688 89.8072 145.688 87.8144C145.688 86.7215 145.969 86.1429 146.588 86.1429C147.15 86.1429 147.375 86.5929 147.263 87.5572ZM133.313 89.1644C133.313 90.9001 133.144 91.3501 132.694 90.8358C132.3 90.3858 132.188 89.3572 132.413 88.4572C132.919 86.0786 133.313 86.4001 133.313 89.1644Z" fill="black"/>
<path d="M11.9811 74.3787C11.4748 74.5715 11.2498 76.1144 11.2498 78.8144C11.2498 82.6715 11.3061 82.9287 12.5436 82.9287C14.6249 82.9287 15.2436 81.9644 15.5811 78.2358C15.8624 75.2144 15.7499 74.5715 15.0186 74.5715C14.5686 74.5715 13.8373 74.4429 13.3873 74.3144C12.9936 74.1215 12.3186 74.1858 11.9811 74.3787Z" fill="black"/>
<path d="M10.7996 91.093C10.9684 94.1787 10.9684 94.1787 13.1059 94.3716C15.7497 94.6287 17.4372 93.1502 17.4372 90.643C17.4372 88.5859 16.6497 88.0716 13.1621 88.0716H10.6309L10.7996 91.093Z" fill="black"/>
<path d="M34.8751 82.8644C34.2563 84.2787 34.1438 88.2001 34.6501 91.1572C34.8751 92.5715 35.3813 93.2144 36.4501 93.5358C38.5313 94.1144 39.3751 92.5072 39.3751 87.8787C39.3751 83.3786 38.7001 81.6429 36.8438 81.6429C36.0563 81.6429 35.2126 82.1572 34.8751 82.8644Z" fill="black"/>
<path d="M57.3748 82.8644C56.756 84.2144 56.6435 89.4216 57.1498 91.7359C57.5435 93.2787 60.0185 94.3073 60.9185 93.2787C61.7623 92.3144 62.0998 85.5001 61.3685 83.3787C60.6373 81.2573 58.2748 80.9358 57.3748 82.8644Z" fill="black"/>
<path d="M156.319 82.993C155.756 84.2787 155.813 92.1216 156.375 92.8287C156.544 92.9573 157.331 93.2787 158.175 93.5359C159.525 93.9216 159.806 93.7287 160.313 92.2502C161.044 90.0644 161.044 84.4716 160.313 82.8644C159.525 81.193 157.163 81.2573 156.319 82.993Z" fill="black"/>
<path d="M80.8317 114.879C79.9317 115.843 80.4942 117.643 81.8442 118.029C83.8692 118.607 84.6005 119.829 83.4755 120.922C82.8005 121.564 82.3505 121.564 81.5067 120.986C80.888 120.536 80.438 120.472 80.438 120.857C80.438 121.95 83.3067 122.4 84.1505 121.372C85.2755 120.086 84.6005 118.479 82.6317 117.707C80.6067 116.936 80.438 115.072 82.4067 115.072C83.1942 115.072 83.813 115.329 83.813 115.714C83.813 116.036 84.0942 116.357 84.4317 116.357C84.8817 116.357 84.8817 116.036 84.3755 115.393C83.6442 114.429 81.5067 114.107 80.8317 114.879Z" fill="black"/>
<path d="M86.6811 118.093C86.7374 120.15 86.9061 121.179 87.0186 120.343C87.1874 119.25 87.6374 118.929 88.8749 118.929C89.9436 118.929 90.7311 118.479 91.1249 117.579C92.0249 115.779 90.8999 114.429 88.5374 114.429H86.6249L86.6811 118.093ZM90.4499 116.486C90.3374 117.579 89.8874 117.964 88.8749 117.964C87.8624 117.964 87.4124 117.579 87.2999 116.486C87.1311 115.264 87.3561 115.072 88.8749 115.072C90.3936 115.072 90.6186 115.264 90.4499 116.486Z" fill="black"/>
<path d="M94.0498 115.2C92.4748 117 93.7686 122.143 95.8498 122.143C97.0873 122.143 98.4373 119.893 98.4373 117.9C98.4373 115.65 97.5373 114.429 95.9061 114.429C95.2311 114.429 94.4436 114.75 94.0498 115.2ZM97.6498 116.743C97.8748 117.643 97.7623 119.057 97.3686 119.957C96.2436 122.786 93.9373 121.436 93.9373 117.964C93.9373 115.522 94.2748 115.072 95.9623 115.072C96.9186 115.072 97.3686 115.522 97.6498 116.743Z" fill="black"/>
<path d="M100.744 118.414C100.8 120.664 100.969 121.693 101.081 120.664C101.419 118.414 103.106 118.35 104.006 120.6C104.344 121.564 104.794 122.143 104.962 121.95C105.131 121.757 105.019 120.986 104.681 120.279C104.175 119.314 104.231 118.607 104.737 117.707C105.637 116.036 104.456 114.429 102.319 114.429H100.687L100.744 118.414ZM104.231 115.972C104.625 117.064 103.612 118.286 102.262 118.286C101.531 118.286 101.25 117.772 101.25 116.679C101.25 115.393 101.531 115.072 102.6 115.072C103.331 115.072 104.062 115.457 104.231 115.972Z" fill="black"/>
<path d="M107.269 114.879C108.338 115.136 108.563 115.65 108.732 118.8L108.901 122.464L109.013 118.8C109.126 115.586 109.294 115.136 110.419 114.879C111.094 114.75 110.419 114.622 108.844 114.622C107.326 114.622 106.594 114.75 107.269 114.879Z" fill="black"/>
<path d="M113.288 115.393C112.894 116.486 113.963 118.286 115.031 118.286C115.425 118.286 116.044 118.672 116.381 119.186C117.394 120.536 115.594 122.014 114.131 120.986C113.513 120.536 113.063 120.472 113.063 120.857C113.063 121.886 115.819 122.336 116.719 121.5C118.069 120.214 117.675 118.929 115.594 117.9C114.525 117.386 113.625 116.679 113.625 116.357C113.625 115.264 115.369 114.814 116.494 115.586C117.338 116.229 117.45 116.164 117.225 115.393C116.775 114.107 113.681 114.107 113.288 115.393Z" fill="black"/>
</svg>
