<svg width="14" height="14" viewBox="0 0 14 14" fill="none" xmlns="http://www.w3.org/2000/svg">
<path d="M7 8.16663C7.9665 8.16663 8.75 7.38313 8.75 6.41663C8.75 5.45013 7.9665 4.66663 7 4.66663C6.0335 4.66663 5.25 5.45013 5.25 6.41663C5.25 7.38313 6.0335 8.16663 7 8.16663Z" fill="#EEEFF2" stroke="#1786F9" stroke-linecap="round" stroke-linejoin="round"/>
<path d="M8.32451 12.6919L8.67789 13.0456L8.67807 13.0454L8.32451 12.6919ZM6.67543 12.6919L6.32192 13.0455L6.32205 13.0456L6.67543 12.6919ZM4.19976 10.2168L3.8462 10.5703L3.84625 10.5704L4.19976 10.2168ZM10.446 9.86323L7.97096 12.3383L8.67807 13.0454L11.1531 10.5703L10.446 9.86323ZM7.97114 12.3382C7.84613 12.463 7.67667 12.5332 7.49997 12.5332V13.5332C7.94171 13.5332 8.36538 13.3578 8.67789 13.0456L7.97114 12.3382ZM7.49997 12.5332C7.32328 12.5332 7.15381 12.463 7.0288 12.3382L6.32205 13.0456C6.63457 13.3578 7.05823 13.5332 7.49997 13.5332V12.5332ZM7.02894 12.3383L4.55327 9.86319L3.84625 10.5704L6.32192 13.0455L7.02894 12.3383ZM4.55332 9.86324C3.97063 9.28051 3.57381 8.53808 3.41306 7.72983L2.43227 7.92491C2.6316 8.92713 3.12365 9.84774 3.8462 10.5703L4.55332 9.86324ZM3.41306 7.72983C3.2523 6.92159 3.33483 6.08382 3.6502 5.32247L2.72633 4.93978C2.33526 5.88385 2.23293 6.92268 2.43227 7.92491L3.41306 7.72983ZM3.6502 5.32247C3.96557 4.56113 4.49963 3.91039 5.18483 3.45256L4.62926 2.62109C3.77961 3.1888 3.11739 3.99571 2.72633 4.93978L3.6502 5.32247ZM5.18483 3.45256C5.87003 2.99473 6.6756 2.75037 7.49968 2.75037V1.75037C6.47782 1.75037 5.47891 2.05338 4.62926 2.62109L5.18483 3.45256ZM7.49968 2.75037C8.32376 2.75037 9.12933 2.99473 9.81453 3.45256L10.3701 2.62109C9.52045 2.05338 8.52154 1.75037 7.49968 1.75037V2.75037ZM9.81453 3.45256C10.4997 3.91039 11.0338 4.56113 11.3492 5.32247L12.273 4.93978C11.882 3.99571 11.2197 3.1888 10.3701 2.62109L9.81453 3.45256ZM11.3492 5.32247C11.6645 6.08382 11.747 6.92159 11.5863 7.72983L12.5671 7.92491C12.7664 6.92268 12.6641 5.88385 12.273 4.93978L11.3492 5.32247ZM11.5863 7.72983C11.4255 8.53808 11.0287 9.28051 10.446 9.86324L11.1532 10.5703C11.8757 9.84774 12.3677 8.92713 12.5671 7.92491L11.5863 7.72983Z" fill="#1786F9"/>
</svg>
