<svg width="16" height="16" viewBox="0 0 16 16" fill="none" xmlns="http://www.w3.org/2000/svg">
<path d="M10.0301 0.291758C9.68725 -0.0972528 9.13131 -0.0972528 8.78842 0.291758C8.44553 0.68077 8.44553 1.31148 8.78842 1.70049L10.0301 0.291758ZM14.1467 6.37078L14.7676 7.07515C14.9322 6.88833 15.0248 6.63497 15.0248 6.37078C15.0248 6.10659 14.9322 5.85322 14.7676 5.66642L14.1467 6.37078ZM8.78842 11.0411C8.44553 11.4301 8.44553 12.0608 8.78842 12.4498C9.13131 12.8388 9.68725 12.8388 10.0301 12.4498L8.78842 11.0411ZM8.78842 1.70049L13.5259 7.07515L14.7676 5.66642L10.0301 0.291758L8.78842 1.70049ZM13.5259 5.66642L8.78842 11.0411L10.0301 12.4498L14.7676 7.07515L13.5259 5.66642Z" fill="#1786F9"/>
<path d="M0.878028 5.37463C0.393106 5.37463 0 5.82061 0 6.37076C0 6.92091 0.393106 7.36689 0.878028 7.36689V5.37463ZM14.0133 7.36689C14.4982 7.36689 14.8914 6.92091 14.8914 6.37076C14.8914 5.82061 14.4982 5.37463 14.0133 5.37463V7.36689ZM0.878028 7.36689H14.0133V5.37463H0.878028V7.36689Z" fill="#1786F9"/>
</svg>
