<svg clip-rule="evenodd" fill-rule="evenodd" height="512" stroke-linejoin="round" stroke-miterlimit="2" viewBox="0 0 32 32" width="512" xmlns="http://www.w3.org/2000/svg"><g id="Switch-Account1"><path d="m22.961 27.749.039.001.032-.003c.144-.018.718-.128.718-.747 0-4.832-3.918-8.75-8.75-8.75-.664 0-1.336 0-2 0-4.832 0-8.75 3.918-8.75 8.75 0 .015 0 .031.002.046.011.243.115.403.242.507.133.122.311.197.506.197 0 0 .75-.043.75-.75 0-4.004 3.246-7.25 7.25-7.25h2c4.004 0 7.25 3.246 7.25 7.25 0 .015 0 .031.002.046.011.243.115.403.242.507.124.114.288.187.467.196z"/><path d="m14 4.25c-4.277 0-7.75 3.473-7.75 7.75s3.473 7.75 7.75 7.75 7.75-3.473 7.75-7.75-3.473-7.75-7.75-7.75zm0 1.5c3.449 0 6.25 2.801 6.25 6.25s-2.801 6.25-6.25 6.25-6.25-2.801-6.25-6.25 2.801-6.25 6.25-6.25z"/><path d="m23.97 14.97-1.5 1.5c-.215.214-.279.537-.163.817s.39.463.693.463h5c.414 0 .75-.336.75-.75s-.336-.75-.75-.75h-3.189s.219-.22.219-.22c.293-.292.293-.768 0-1.06-.292-.293-.768-.293-1.06 0z"/><path d="m23 20.75h3.189s-.219.22-.219.22c-.293.292-.293.768 0 1.06.292.293.768.293 1.06 0l1.5-1.5c.215-.214.279-.537.163-.817s-.39-.463-.693-.463h-5c-.414 0-.75.336-.75.75s.336.75.75.75z"/></g></svg>