<svg height="512" viewBox="0 0 128 128" width="512" xmlns="http://www.w3.org/2000/svg"><g><path d="m99.47 25.874v-2.214a6.427 6.427 0 0 0 -6.41-6.41 6.417 6.417 0 0 0 -6.41 6.41v2.11h-6.56v-2.11a6.41 6.41 0 0 0 -6.4-6.41 6.418 6.418 0 0 0 -6.41 6.41v2.11h-6.56v-2.11a6.405 6.405 0 1 0 -12.81 0v2.11h-6.56v-2.11a6.427 6.427 0 0 0 -6.41-6.41 6.418 6.418 0 0 0 -6.41 6.41v2.214a12.853 12.853 0 0 0 -11.28 12.736v59.3a12.855 12.855 0 0 0 12.84 12.84h67.82a12.855 12.855 0 0 0 12.84-12.84v-59.3a12.853 12.853 0 0 0 -11.28-12.736zm-9.32-2.214a2.914 2.914 0 0 1 2.91-2.91 2.928 2.928 0 0 1 2.91 2.91v7.72a2.91 2.91 0 0 1 -5.82 0zm-19.37 0a2.913 2.913 0 0 1 2.91-2.91 2.909 2.909 0 0 1 2.9 2.91v7.72a2.905 2.905 0 1 1 -5.81 0zm-19.37 0a2.905 2.905 0 1 1 5.81 0v7.72a2.905 2.905 0 1 1 -5.81 0zm-19.38 0a2.913 2.913 0 0 1 2.91-2.91 2.928 2.928 0 0 1 2.91 2.91v7.72a2.91 2.91 0 0 1 -5.82 0zm-3.5 5.751v1.969a6.41 6.41 0 0 0 12.82 0v-2.11h6.56v2.11a6.405 6.405 0 1 0 12.81 0v-2.11h6.56v2.11a6.405 6.405 0 1 0 12.81 0v-2.11h6.56v2.11a6.41 6.41 0 0 0 12.82 0v-1.969a9.348 9.348 0 0 1 7.78 9.2v5.267h-86.5v-5.268a9.348 9.348 0 0 1 7.78-9.199zm69.38 77.839h-67.82a9.351 9.351 0 0 1 -9.34-9.34v-50.53h86.5v50.53a9.351 9.351 0 0 1 -9.34 9.34z"/><path d="m41.684 56.135h-7.066a4.646 4.646 0 0 0 -4.64 4.64v7.066a4.646 4.646 0 0 0 4.64 4.64h7.066a4.646 4.646 0 0 0 4.64-4.64v-7.066a4.646 4.646 0 0 0 -4.64-4.64zm1.14 11.706a1.141 1.141 0 0 1 -1.14 1.14h-7.066a1.141 1.141 0 0 1 -1.14-1.14v-7.066a1.141 1.141 0 0 1 1.14-1.14h7.066a1.141 1.141 0 0 1 1.14 1.14z"/><path d="m67.533 56.135h-7.066a4.646 4.646 0 0 0 -4.64 4.64v7.066a4.646 4.646 0 0 0 4.64 4.64h7.066a4.646 4.646 0 0 0 4.64-4.64v-7.066a4.646 4.646 0 0 0 -4.64-4.64zm1.14 11.706a1.141 1.141 0 0 1 -1.14 1.14h-7.066a1.141 1.141 0 0 1 -1.14-1.14v-7.066a1.141 1.141 0 0 1 1.14-1.14h7.066a1.141 1.141 0 0 1 1.14 1.14z"/><path d="m95.65 58.529-7.85 7.846-3.756-3.756a1.75 1.75 0 0 0 -2.474 2.475l4.993 4.993a1.749 1.749 0 0 0 2.475 0l9.087-9.087a1.75 1.75 0 0 0 -2.475-2.475z"/><path d="m41.684 80.241h-7.066a4.646 4.646 0 0 0 -4.64 4.64v7.066a4.646 4.646 0 0 0 4.64 4.64h7.066a4.646 4.646 0 0 0 4.64-4.64v-7.066a4.646 4.646 0 0 0 -4.64-4.64zm1.14 11.706a1.141 1.141 0 0 1 -1.14 1.14h-7.066a1.141 1.141 0 0 1 -1.14-1.14v-7.066a1.141 1.141 0 0 1 1.14-1.14h7.066a1.141 1.141 0 0 1 1.14 1.14z"/><path d="m67.533 80.241h-7.066a4.646 4.646 0 0 0 -4.64 4.64v7.066a4.646 4.646 0 0 0 4.64 4.64h7.066a4.646 4.646 0 0 0 4.64-4.64v-7.066a4.646 4.646 0 0 0 -4.64-4.64zm1.14 11.706a1.141 1.141 0 0 1 -1.14 1.14h-7.066a1.141 1.141 0 0 1 -1.14-1.14v-7.066a1.141 1.141 0 0 1 1.14-1.14h7.066a1.141 1.141 0 0 1 1.14 1.14z"/><path d="m93.382 80.241h-7.066a4.646 4.646 0 0 0 -4.64 4.64v7.066a4.646 4.646 0 0 0 4.64 4.64h7.066a4.646 4.646 0 0 0 4.64-4.64v-7.066a4.646 4.646 0 0 0 -4.64-4.64zm1.14 11.706a1.141 1.141 0 0 1 -1.14 1.14h-7.066a1.141 1.141 0 0 1 -1.14-1.14v-7.066a1.141 1.141 0 0 1 1.14-1.14h7.066a1.141 1.141 0 0 1 1.14 1.14z"/></g></svg>