<?xml version="1.0" encoding="iso-8859-1"?>
<!-- Generator: Adobe Illustrator 19.0.0, SVG Export Plug-In . SVG Version: 6.00 Build 0)  -->
<svg version="1.1" id="Capa_1" xmlns="http://www.w3.org/2000/svg" xmlns:xlink="http://www.w3.org/1999/xlink" x="0px" y="0px"
	 viewBox="0 0 512 512" style="enable-background:new 0 0 512 512;" xml:space="preserve">
<g>
	<g>
		<g>
			<path d="M369.246,312.919c-2.94-2.939-7.708-2.939-10.648,0l-12.245,12.245l-12.245-12.245c-2.94-2.939-7.708-2.939-10.648,0
				c-2.941,2.941-2.941,7.708,0,10.649l12.244,12.244l-12.244,12.244c-2.94,2.941-2.94,7.708,0,10.649
				c1.47,1.47,3.397,2.205,5.324,2.205s3.854-0.735,5.324-2.205l12.245-12.245l12.245,12.245c1.47,1.47,3.397,2.205,5.324,2.205
				s3.854-0.735,5.324-2.205c2.941-2.941,2.941-7.708,0-10.649l-12.244-12.244l12.244-12.244
				C372.187,320.627,372.187,315.86,369.246,312.919z"/>
			<path d="M316.235,403.576v45.176c0,4.159,3.371,7.529,7.529,7.529h45.176c4.158,0,7.529-3.371,7.529-7.529v-45.176
				c0-4.159-3.371-7.529-7.529-7.529h-45.176C319.606,396.047,316.235,399.418,316.235,403.576z M331.294,411.106h30.118v30.118
				h-30.118V411.106z"/>
			<path d="M406.588,313.224V358.4c0,4.159,3.371,7.529,7.529,7.529h45.176c4.158,0,7.529-3.371,7.529-7.529v-45.176
				c0-4.159-3.371-7.529-7.529-7.529h-45.176C409.959,305.694,406.588,309.065,406.588,313.224z M421.647,320.753h30.118v30.118
				h-30.118V320.753z"/>
			<path d="M504.471,388.528c4.158,0,7.529-3.371,7.529-7.529V91.106c0-20.759-16.888-37.647-37.647-37.647h-52.706V38.4
				c0-16.607-13.511-30.118-30.118-30.118c-13.216,0-25.084,8.837-28.862,21.491c-1.19,3.984,1.076,8.179,5.061,9.369
				c3.986,1.19,8.179-1.076,9.369-5.061c1.888-6.324,7.823-10.74,14.433-10.74c8.303,0,15.059,6.755,15.059,15.059v48.188
				c0,8.304-6.755,15.059-15.059,15.059c-8.304,0-15.059-6.755-15.059-15.059v-25.6c0-4.159-3.371-7.529-7.529-7.529
				c-0.254,0-0.505,0.013-0.753,0.038c-0.248-0.025-0.499-0.038-0.753-0.038H149.584V38.4c0-16.607-13.511-30.118-30.118-30.118
				S89.349,21.793,89.349,38.4v15.059H37.647C16.888,53.459,0,70.347,0,91.106v374.965c0,20.759,16.888,37.647,37.647,37.647
				h436.706c20.759,0,37.647-16.888,37.647-37.647v-42.165c0-4.159-3.371-7.529-7.529-7.529c-4.158,0-7.529,3.371-7.529,7.529
				v42.165c0,12.455-10.133,22.588-22.588,22.588H37.647c-12.455,0-22.588-10.133-22.588-22.588V188.988h24.764
				c4.158,0,7.529-3.371,7.529-7.529c0-4.159-3.371-7.529-7.529-7.529H15.059V91.106c0-12.455,10.133-22.588,22.588-22.588h51.702
				v18.071c0,16.607,13.511,30.118,30.118,30.118s30.118-13.511,30.118-30.118V68.518h211.827v18.071
				c0,16.607,13.511,30.118,30.118,30.118c16.607,0,30.118-13.511,30.118-30.118V68.518h52.706
				c12.455,0,22.588,10.133,22.588,22.588v82.824H81.568c-4.158,0-7.529,3.371-7.529,7.529c0,4.159,3.371,7.529,7.529,7.529h415.374
				v192.011C496.941,385.158,500.312,388.528,504.471,388.528z M134.525,86.588c0,8.304-6.755,15.059-15.059,15.059
				s-15.059-6.755-15.059-15.059V38.4c0-8.304,6.755-15.059,15.059-15.059s15.059,6.755,15.059,15.059V86.588z"/>
			<path d="M378.78,224.623c-2.94-2.939-7.707-2.939-10.648,0l-26.621,26.621l-12.423-12.424c-2.94-2.939-7.708-2.939-10.648,0
				c-2.941,2.941-2.941,7.708,0,10.649l17.747,17.747c1.47,1.47,3.397,2.205,5.324,2.205c1.926,0,3.854-0.735,5.324-2.205
				l31.945-31.944C381.721,232.33,381.721,227.564,378.78,224.623z"/>
			<path d="M459.599,223.026c-2.94-2.939-7.708-2.939-10.648,0l-12.245,12.245l-12.245-12.245c-2.94-2.939-7.708-2.939-10.648,0
				c-2.941,2.941-2.941,7.708,0,10.649l12.244,12.244l-12.244,12.244c-2.94,2.941-2.94,7.708,0,10.649
				c1.47,1.47,3.397,2.205,5.324,2.205s3.854-0.735,5.324-2.205l12.245-12.245l12.245,12.245c1.47,1.47,3.397,2.205,5.324,2.205
				s3.854-0.735,5.324-2.205c2.941-2.941,2.941-7.708,0-10.649l-12.244-12.244l12.244-12.244
				C462.54,230.734,462.54,225.967,459.599,223.026z"/>
			<path d="M107.722,314.515c-2.94-2.939-7.708-2.939-10.648,0l-26.621,26.622L58.03,328.713c-2.94-2.939-7.708-2.939-10.648,0
				c-2.941,2.941-2.941,7.708,0,10.649l17.747,17.747c1.412,1.412,3.327,2.205,5.324,2.205s3.912-0.793,5.324-2.205l31.945-31.945
				C110.662,322.223,110.662,317.456,107.722,314.515z"/>
			<path d="M52.706,396.047c-4.158,0-7.529,3.371-7.529,7.529v45.176c0,4.159,3.371,7.529,7.529,7.529h45.176
				c4.158,0,7.529-3.371,7.529-7.529v-45.176c0-4.159-3.371-7.529-7.529-7.529H52.706z M90.353,441.224H60.235v-30.118h30.118
				V441.224z"/>
			<path d="M105.411,268.507V223.33c0-4.159-3.371-7.529-7.529-7.529H52.706c-4.158,0-7.529,3.371-7.529,7.529v45.176
				c0,4.159,3.371,7.529,7.529,7.529h45.176v0.001C102.04,276.036,105.411,272.665,105.411,268.507z M90.353,260.978H60.235V230.86
				h30.118V260.978z"/>
			<path d="M198.075,224.623c-2.94-2.939-7.707-2.939-10.648,0l-26.621,26.621l-12.423-12.424c-2.94-2.939-7.708-2.939-10.648,0
				c-2.941,2.941-2.941,7.708,0,10.649l17.747,17.747c1.47,1.47,3.397,2.205,5.324,2.205c1.926,0,3.854-0.735,5.324-2.205
				l31.945-31.944C201.015,232.33,201.015,227.564,198.075,224.623z"/>
			<path d="M143.059,396.047c-4.158,0-7.529,3.371-7.529,7.529v45.176c0,4.159,3.371,7.529,7.529,7.529h45.176
				c4.158,0,7.529-3.371,7.529-7.529v-45.176c0-4.159-3.371-7.529-7.529-7.529H143.059z M180.706,441.224h-30.118v-30.118h30.118
				V441.224z"/>
			<path d="M288.427,224.623c-2.94-2.939-7.708-2.939-10.648,0l-26.621,26.621l-12.423-12.424c-2.94-2.939-7.708-2.939-10.648,0
				c-2.941,2.941-2.941,7.708,0,10.649l17.747,17.747c1.47,1.47,3.397,2.205,5.324,2.205c1.926,0,3.854-0.735,5.324-2.205
				l31.945-31.944C291.368,232.33,291.368,227.564,288.427,224.623z"/>
			<path d="M288.427,314.515c-2.94-2.939-7.708-2.939-10.648,0l-26.621,26.622l-12.423-12.424c-2.94-2.939-7.708-2.939-10.648,0
				c-2.941,2.941-2.941,7.708,0,10.649l17.747,17.747c1.412,1.412,3.327,2.205,5.324,2.205c1.997,0,3.912-0.793,5.324-2.205
				l31.945-31.945C291.368,322.223,291.368,317.456,288.427,314.515z"/>
			<path d="M233.412,396.047c-4.158,0-7.529,3.371-7.529,7.529v45.176c0,4.159,3.371,7.529,7.529,7.529h45.176
				c4.158,0,7.529-3.371,7.529-7.529v-45.176c0-4.159-3.371-7.529-7.529-7.529H233.412z M271.059,441.224h-30.118v-30.118h30.118
				V441.224z"/>
			<path d="M198.075,314.515c-2.94-2.939-7.708-2.939-10.648,0l-26.621,26.622l-12.423-12.424c-2.94-2.939-7.708-2.939-10.648,0
				c-2.941,2.941-2.941,7.708,0,10.649l17.747,17.747c1.412,1.412,3.327,2.205,5.324,2.205c1.997,0,3.912-0.793,5.324-2.205
				l31.945-31.945C201.015,322.223,201.015,317.456,198.075,314.515z"/>
		</g>
	</g>
</g>
<g>
</g>
<g>
</g>
<g>
</g>
<g>
</g>
<g>
</g>
<g>
</g>
<g>
</g>
<g>
</g>
<g>
</g>
<g>
</g>
<g>
</g>
<g>
</g>
<g>
</g>
<g>
</g>
<g>
</g>
</svg>
