<?xml version="1.0" encoding="UTF-8" standalone="no"?>
<!-- Created with Inkscape (http://www.inkscape.org/) -->

<svg
   version="1.1"
   id="svg714"
   xml:space="preserve"
   width="682.66669"
   height="682.66669"
   viewBox="0 0 682.66669 682.66669"
   xmlns="http://www.w3.org/2000/svg"
   xmlns:svg="http://www.w3.org/2000/svg"><defs
     id="defs718"><clipPath
       clipPathUnits="userSpaceOnUse"
       id="clipPath728"><path
         d="M 0,512 H 512 V 0 H 0 Z"
         id="path726" /></clipPath></defs><g
     id="g720"
     transform="matrix(1.3333333,0,0,-1.3333333,0,682.66667)"><g
       id="g722"><g
         id="g724"
         clip-path="url(#clipPath728)"><g
           id="g730"
           transform="translate(497,256)"><path
             d="m 0,0 c 0,-132.548 -108.452,-241 -241,-241 -132.548,0 -241,108.452 -241,241 0,132.548 108.452,241 241,241 C -108.452,241 0,132.548 0,0 Z"
             style="fill:none;stroke:#000000;stroke-width:30;stroke-linecap:round;stroke-linejoin:round;stroke-miterlimit:10;stroke-dasharray:none;stroke-opacity:1"
             id="path732" /></g><g
           id="g734"
           transform="translate(118.1143,139.3274)"><path
             d="m 0,0 c 5.858,5.858 15.355,5.858 21.213,0 5.858,-5.858 5.858,-15.355 0,-21.213 C 15.355,-27.071 5.858,-27.071 0,-21.213 -5.858,-15.355 -5.858,-5.858 0,0"
             style="fill:#000000;fill-opacity:1;fill-rule:nonzero;stroke:none"
             id="path736" /></g><g
           id="g738"
           transform="translate(372.6729,393.8857)"><path
             d="m 0,0 c 5.857,5.858 15.355,5.858 21.213,0 5.858,-5.858 5.858,-15.355 0,-21.213 C 15.355,-27.071 5.857,-27.071 0,-21.213 -5.858,-15.355 -5.858,-5.858 0,0"
             style="fill:#000000;fill-opacity:1;fill-rule:nonzero;stroke:none"
             id="path740" /></g><g
           id="g742"
           transform="translate(139.3271,393.8857)"><path
             d="m 0,0 c 5.858,-5.858 5.858,-15.355 0,-21.213 -5.857,-5.858 -15.355,-5.858 -21.213,0 -5.858,5.858 -5.858,15.355 0,21.213 C -15.355,5.858 -5.857,5.858 0,0"
             style="fill:#000000;fill-opacity:1;fill-rule:nonzero;stroke:none"
             id="path744" /></g><g
           id="g746"
           transform="translate(393.8857,139.3274)"><path
             d="m 0,0 c 5.858,-5.858 5.858,-15.355 0,-21.213 -5.858,-5.858 -15.355,-5.858 -21.213,0 -5.858,5.858 -5.858,15.355 0,21.213 C -15.355,5.858 -5.858,5.858 0,0"
             style="fill:#000000;fill-opacity:1;fill-rule:nonzero;stroke:none"
             id="path748" /></g><g
           id="g750"
           transform="translate(256,436)"><path
             d="M 0,0 V -30"
             style="fill:none;stroke:#000000;stroke-width:30;stroke-linecap:round;stroke-linejoin:round;stroke-miterlimit:10;stroke-dasharray:none;stroke-opacity:1"
             id="path752" /></g><g
           id="g754"
           transform="translate(256,106)"><path
             d="M 0,0 V -30"
             style="fill:none;stroke:#000000;stroke-width:30;stroke-linecap:round;stroke-linejoin:round;stroke-miterlimit:10;stroke-dasharray:none;stroke-opacity:1"
             id="path756" /></g><g
           id="g758"
           transform="translate(76,256)"><path
             d="M 0,0 H 30"
             style="fill:none;stroke:#000000;stroke-width:30;stroke-linecap:round;stroke-linejoin:round;stroke-miterlimit:10;stroke-dasharray:none;stroke-opacity:1"
             id="path760" /></g><g
           id="g762"
           transform="translate(406,256)"><path
             d="M 0,0 H 30"
             style="fill:none;stroke:#000000;stroke-width:30;stroke-linecap:round;stroke-linejoin:round;stroke-miterlimit:10;stroke-dasharray:none;stroke-opacity:1"
             id="path764" /></g><g
           id="g766"
           transform="translate(256,346)"><path
             d="m 0,0 v -90 l 90,-90"
             style="fill:none;stroke:#000000;stroke-width:30;stroke-linecap:round;stroke-linejoin:round;stroke-miterlimit:10;stroke-dasharray:none;stroke-opacity:1"
             id="path768" /></g></g></g></g></svg>
