<svg id="Outline" height="512" viewBox="0 0 64 64" width="512" xmlns="http://www.w3.org/2000/svg"><path d="m19.5 36.71c.2.2.45.29.71.29s.51-.1.71-.29c.39-.39.39-1.02 0-1.41l-2-2 2-2c.39-.39.39-1.02 0-1.41s-1.02-.39-1.41 0l-2 2-2-2c-.39-.39-1.02-.39-1.41 0s-.39 1.02 0 1.41l2 2-2 2c-.39.39-.39 1.02 0 1.41.2.2.45.29.71.29s.51-.1.71-.29l2-2 2 2z"/><path d="m37.91 29.88c-.39-.39-1.02-.39-1.41 0l-2 2-2-2c-.39-.39-1.02-.39-1.41 0s-.39 1.02 0 1.41l2 2-2 2c-.39.39-.39 1.02 0 1.41.2.2.45.29.71.29s.51-.1.71-.29l2-2 2 2c.2.2.45.29.71.29s.51-.1.71-.29c.39-.39.39-1.02 0-1.41l-2-2 2-2c.39-.39.39-1.02 0-1.41z"/><path d="m54 34c-1.65 0-3 1.35-3 3s1.35 3 3 3 3-1.35 3-3-1.35-3-3-3zm0 4c-.55 0-1-.45-1-1s.45-1 1-1 1 .45 1 1-.45 1-1 1z"/><path d="m19.4 44.2c-.44.33-.54.96-.21 1.4s.96.54 1.4.21c3.64-2.7 7.17-2.7 10.81 0 .18.13.39.2.6.2.31 0 .61-.14.8-.4.33-.44.24-1.07-.21-1.4-4.38-3.25-8.82-3.25-13.19 0z"/><g><path d="m10.45 17h35.85c.55 0 1-.45 1-1s-.45-1-1-1h-35.85c-.55 0-1 .45-1 1s.45 1 1 1z"/><path d="m58 29v-7c0-1.65-1.35-3-3-3h-2v-5c0-1.65-1.35-3-3-3h-42c-2.76 0-5 2.24-5 5v35c0 2.76 2.24 5 5 5h47c1.65 0 3-1.35 3-3v-8c1.65 0 3-1.35 3-3v-10c0-1.65-1.35-3-3-3zm-50-16h42c.55 0 1 .45 1 1v5h-43c-1.65 0-3-1.35-3-3s1.35-3 3-3zm48 40c0 .55-.45 1-1 1h-47c-1.65 0-3-1.35-3-3v-31.03c.84.63 1.87 1.03 3 1.03h47c.55 0 1 .45 1 1v7h-4c-2.76 0-5 2.24-5 5v6c0 2.76 2.24 5 5 5h4zm3-11c0 .55-.45 1-1 1h-6c-1.65 0-3-1.35-3-3v-6c0-1.65 1.35-3 3-3h6c.55 0 1 .45 1 1z"/></g></svg>