<svg width="20" height="20" viewBox="0 0 20 20" fill="none" xmlns="http://www.w3.org/2000/svg">
<g clip-path="url(#clip0_8_3856)">
<path d="M14.8754 3.24805V3.99805V3.24805ZM11.6338 4.59124L12.1641 5.12157L12.1642 5.12144L11.6338 4.59124ZM10.7504 5.47457L10.2201 6.0049C10.513 6.29779 10.9879 6.29779 11.2808 6.0049L10.7504 5.47457ZM9.8671 4.59124L9.33677 5.12157L9.8671 4.59124ZM3.38376 11.0746L2.85343 11.6049L3.38376 11.0746ZM4.2671 11.9579L3.73677 12.4882L4.2671 11.9579ZM10.7504 18.4412L10.2201 18.9715C10.513 19.2644 10.9879 19.2644 11.2808 18.9715L10.7504 18.4412ZM18.1171 11.0746L17.5869 10.5441L17.5867 10.5442L18.1171 11.0746ZM18.6475 4.06103C18.1523 3.56552 17.5642 3.17244 16.917 2.90426L16.3428 4.29002C16.808 4.48277 17.2306 4.7653 17.5866 5.12144L18.6475 4.06103ZM16.917 2.90426C16.2697 2.63608 15.576 2.49805 14.8754 2.49805V3.99805C15.379 3.99805 15.8776 4.09726 16.3428 4.29002L16.917 2.90426ZM14.8754 2.49805C14.1748 2.49805 13.4811 2.63608 12.8339 2.90426L13.408 4.29002C13.8732 4.09726 14.3719 3.99805 14.8754 3.99805V2.49805ZM12.8339 2.90426C12.1866 3.17244 11.5986 3.56552 11.1033 4.06103L12.1642 5.12144C12.5202 4.76529 12.9428 4.48277 13.408 4.29002L12.8339 2.90426ZM11.1034 4.0609L10.2201 4.94424L11.2808 6.0049L12.1641 5.12157L11.1034 4.0609ZM11.2808 4.94424L10.3974 4.0609L9.33677 5.12157L10.2201 6.0049L11.2808 4.94424ZM10.3974 4.0609C9.39703 3.06051 8.0402 2.49849 6.62543 2.49849V3.99849C7.64238 3.99849 8.61767 4.40248 9.33677 5.12157L10.3974 4.0609ZM6.62543 2.49849C5.21066 2.49849 3.85383 3.06051 2.85343 4.0609L3.91409 5.12157C4.63318 4.40248 5.60848 3.99849 6.62543 3.99849V2.49849ZM2.85343 4.0609C1.85303 5.0613 1.29102 6.41813 1.29102 7.8329H2.79102C2.79102 6.81596 3.195 5.84066 3.91409 5.12157L2.85343 4.0609ZM1.29102 7.8329C1.29102 9.24768 1.85303 10.6045 2.85343 11.6049L3.91409 10.5442C3.195 9.82515 2.79102 8.84985 2.79102 7.8329H1.29102ZM2.85343 11.6049L3.73677 12.4882L4.79743 11.4276L3.91409 10.5442L2.85343 11.6049ZM3.73677 12.4882L10.2201 18.9715L11.2808 17.9109L4.79743 11.4276L3.73677 12.4882ZM11.2808 18.9715L17.7641 12.4882L16.7034 11.4276L10.2201 17.9109L11.2808 18.9715ZM17.7641 12.4882L18.6474 11.6049L17.5867 10.5442L16.7034 11.4276L17.7641 12.4882ZM18.6473 11.605C19.1428 11.1097 19.5359 10.5217 19.804 9.87446L18.4183 9.30027C18.2255 9.76547 17.943 10.1881 17.5869 10.5441L18.6473 11.605ZM19.804 9.87446C20.0722 9.22723 20.2103 8.5335 20.2103 7.8329H18.7103C18.7103 8.33646 18.6111 8.83507 18.4183 9.30027L19.804 9.87446ZM20.2103 7.8329C20.2103 7.13231 20.0722 6.43858 19.804 5.79135L18.4183 6.36554C18.6111 6.83074 18.7103 7.32935 18.7103 7.8329H20.2103ZM19.804 5.79135C19.5359 5.14412 19.1428 4.55606 18.6473 4.06078L17.5869 5.12169C17.943 5.47767 18.2255 5.90034 18.4183 6.36554L19.804 5.79135Z" fill="#141416"/>
</g>
<defs>
<clipPath id="clip0_8_3856">
<rect width="20" height="20" fill="white"/>
</clipPath>
</defs>
</svg>
