<?xml version="1.0"?>
<svg xmlns="http://www.w3.org/2000/svg" id="Layer_3" data-name="Layer 3" viewBox="0 0 64 64" width="512" height="512"><path d="M14,16a2,2,0,0,1,2,2h2a4,4,0,0,0-3-3.858V12H13v2.142A3.992,3.992,0,0,0,14,22a2,2,0,1,1-2,2H10a4,4,0,0,0,3,3.858V30h2V27.858A3.992,3.992,0,0,0,14,20a2,2,0,0,1,0-4Z"/><path d="M50,38a2,2,0,0,1,2,2h2a4,4,0,0,0-3-3.858V34H49v2.142A3.992,3.992,0,0,0,50,44a2,2,0,1,1-2,2H46a4,4,0,0,0,3,3.858V52h2V49.858A3.992,3.992,0,0,0,50,42a2,2,0,0,1,0-4Z"/><path d="M50,30c-.338,0-.669.025-1,.051V24h2v3a1,1,0,0,0,1.651.759l7-6a1,1,0,0,0,0-1.518l-7-6A1,1,0,0,0,51,15v3H49V7a6.006,6.006,0,0,0-6-6H21a6.006,6.006,0,0,0-6,6V8.051C14.669,8.025,14.338,8,14,8a13,13,0,0,0,0,26c.338,0,.669-.025,1-.051V41H13V38a1,1,0,0,0-1.651-.759l-7,6a1,1,0,0,0,0,1.518l7,6A1,1,0,0,0,13,50V47h2V57a6.006,6.006,0,0,0,6,6H43a6.006,6.006,0,0,0,6-6V55.949c.331.026.662.051,1,.051a13,13,0,0,0,0-26Zm2-10a1,1,0,0,0,1-1V17.174L57.463,21,53,24.826V23a1,1,0,0,0-1-1H35V20ZM40.586,3l-2,2H25.414l-2-2ZM3,21A11,11,0,1,1,14,32,11.013,11.013,0,0,1,3,21Zm9,24a1,1,0,0,0-1,1v1.826L6.537,44,11,40.174V42a1,1,0,0,0,1,1H29v2ZM39,61H25V60a1,1,0,0,1,1-1H38a1,1,0,0,1,1,1Zm8-4a4,4,0,0,1-4,4H41V60a3,3,0,0,0-3-3H26a3,3,0,0,0-3,3v1H21a4,4,0,0,1-4-4V47H30a1,1,0,0,0,1-1V42a1,1,0,0,0-1-1H17V33.637A12.985,12.985,0,0,0,17,8.363V7a3.992,3.992,0,0,1,3.624-3.962l3.669,3.669A1,1,0,0,0,25,7H39a1,1,0,0,0,.707-.293l3.669-3.669A3.992,3.992,0,0,1,47,7V18H34a1,1,0,0,0-1,1v4a1,1,0,0,0,1,1H47v6.363a12.985,12.985,0,0,0,0,25.274Zm3-3A11,11,0,1,1,61,43,11.013,11.013,0,0,1,50,54Z"/><rect x="28" y="14" width="12" height="2"/><rect x="24" y="49" width="12" height="2"/><rect x="34" y="10" width="8" height="2"/><rect x="30" y="52.857" width="8" height="2"/></svg>
