<svg id="Capa_1" enable-background="new 0 0 512 512" height="512" viewBox="0 0 512 512" width="512" xmlns="http://www.w3.org/2000/svg"><g><g><circle cx="256" cy="267" fill="#d4f2f6" r="245"/></g><g><path d="m156.426 100.574c0-7.557.851-14.919 2.453-21.998-13.021 6.7-25.379 14.753-36.82 24.088-37.135 30.302-63.148 72.641-73.246 119.218-1.17 5.397 2.257 10.721 7.654 11.892 5.395 1.171 10.722-2.256 11.892-7.654 9.142-42.169 32.704-80.51 66.345-107.959 6.894-5.625 14.16-10.731 21.722-15.311z" fill="#03bed7"/><path d="m480.747 239.697h-14.501c-9.07-70.234-52.648-129.799-113.121-161.101 1.6 7.073 2.449 14.428 2.449 21.978v2.328c47.973 29.223 82.194 78.881 90.476 136.795h-12.885c-4.649 0-7.312 5.299-4.538 9.03l23.791 31.993c2.261 3.041 6.815 3.041 9.076 0l23.791-31.993c2.775-3.732.112-9.03-4.538-9.03z" fill="#03bed7"/><g><path d="m441.502 248.726c-2.774-3.731-.112-9.03 4.538-9.03h-12.875c-4.649 0-7.312 5.299-4.538 9.03l23.791 31.993c2.261 3.041 6.815 3.041 9.076 0l1.899-2.554z" fill="#07b2cd"/></g></g><g><path d="m86 356.147c-9.988-18.974-16.899-39.81-20.05-61.844h13.297c4.649 0 7.312-5.299 4.538-9.03l-23.791-31.993c-2.261-3.041-6.815-3.041-9.076 0l-23.791 31.993c-2.774 3.731-.112 9.03 4.538 9.03h14.089c4.76 36.855 19.029 70.766 40.246 99.205z" fill="#03bed7"/><g><path d="m40.127 285.274 21.829-29.355-1.962-2.638c-2.261-3.041-6.815-3.041-9.076 0l-23.791 31.993c-2.774 3.731-.112 9.03 4.538 9.03h13c-4.649-.001-7.312-5.299-4.538-9.03z" fill="#07b2cd"/></g><g fill="#03bed7"><path d="m455.532 300.227c-5.396-1.167-10.722 2.257-11.892 7.654-3.66 16.882-9.637 33.148-17.641 48.349v37.378c17.976-24.136 30.784-51.958 37.187-81.49 1.171-5.397-2.256-10.721-7.654-11.891z"/><path d="m357.512 429.971c-30.286 18.841-65.555 29.029-101.512 29.029-37.197 0-71.95-10.642-101.392-29.029h-34.033c36.755 30.596 83.975 49.029 135.425 49.029 48.705 0 96.272-16.927 133.94-47.663.551-.45 1.092-.911 1.638-1.366z"/></g></g><g><path d="m196.201 146.009v-45.435c0-32.973 26.825-59.799 59.799-59.799s59.799 26.826 59.799 59.799v45.435h40.775v-45.435c0-55.457-45.117-100.574-100.574-100.574s-100.574 45.117-100.574 100.574v45.435z" fill="#3692bc"/><g fill="#0681af"><path d="m315.799 100.574v45.435h23.625v-45.435c0-32.973-26.825-59.799-59.799-59.799-4.043 0-7.992.409-11.812 1.177 27.334 5.499 47.986 29.692 47.986 58.622z"/><path d="m179.05 146.009v-45.435c0-51.461 38.852-94.01 88.762-99.877-3.876-.455-7.816-.697-11.812-.697-55.457 0-100.574 45.117-100.574 100.574v45.435z"/></g><path d="m375.618 145.009h-239.236c-7.792 0-14.108 6.316-14.108 14.108v157.503h267.452v-157.503c0-7.792-6.316-14.108-14.108-14.108z" fill="#ffc344"/><path d="m174.348 316.62v-157.503c0-7.792 6.316-14.108 14.108-14.108h-52.074c-7.791 0-14.108 6.316-14.108 14.108v157.503z" fill="#feb137"/><g><path d="m251.797 307.253c-12.965 0-23.513-10.548-23.513-23.513v-30.351c-11.428-9.227-17.529-23.517-16.121-38.449 1.996-21.167 19.51-38.234 40.74-39.7 1.029-.071 2.07-.107 3.097-.107 24.283 0 44.037 19.755 44.037 44.037 0 13.457-6.016 25.904-16.321 34.22v30.35c0 12.965-10.548 23.513-23.513 23.513z" fill="#ffe177"/></g><g><path d="m285.929 219.17c0-17.232-14.564-31.063-32.054-29.855-14.464.999-26.305 12.515-27.666 26.95-1.121 11.887 4.721 22.506 13.916 28.271 1.388.87 2.267 2.357 2.267 3.994v35.21c0 5.194 4.211 9.405 9.405 9.405h8.406c5.194 0 9.405-4.211 9.405-9.405v-35.184c0-1.651.884-3.152 2.282-4.03 8.431-5.293 14.039-14.667 14.039-25.356z" fill="#3692bc"/></g><g><path d="m257.78 283.74v-35.21c0-1.638-.88-3.124-2.267-3.994-9.195-5.766-15.037-16.384-13.916-28.271 1.182-12.53 10.261-22.856 22.096-26.018-3.105-.824-6.405-1.168-9.819-.932-14.464.999-26.305 12.515-27.666 26.95-1.121 11.887 4.721 22.506 13.916 28.271 1.388.87 2.267 2.357 2.267 3.994v35.21c0 5.194 4.211 9.405 9.405 9.405h8.406c1.235 0 2.411-.244 3.491-.677-3.463-1.387-5.913-4.769-5.913-8.728z" fill="#017297"/></g></g><g><g><path d="m412 430.971h-312c-8.284 0-15-6.716-15-15v-85.351c0-8.284 6.716-15 15-15h312c8.284 0 15 6.716 15 15v85.351c0 8.284-6.716 15-15 15z" fill="#fd6930"/></g><g fill="#d73d24"><g><path d="m173.35 362.903 7.701-4.446c-1.88-1.707-4.716-2.093-7.033-.755l-.668.386z"/><path d="m161.35 362.903v-10.402c0-1.692.703-3.218 1.83-4.308-1.08-1.045-2.549-1.692-4.17-1.692-3.313 0-6 2.687-6 6v5.587z"/><path d="m173.35 383.688v4.815l.668.386c.945.545 1.977.805 2.995.805 1.476 0 2.918-.555 4.03-1.564z"/><path d="m161.35 394.09v-10.402l-8.34 4.815v5.587c0 3.313 2.687 6 6 6 1.622 0 3.09-.646 4.17-1.692-1.127-1.09-1.83-2.616-1.83-4.308z"/><path d="m144.145 386.693c-1.657-2.87-.673-6.54 2.196-8.196l9.008-5.201-9.008-5.201c-2.87-1.657-3.853-5.327-2.196-8.196.319-.553.715-1.034 1.163-1.442l-1.307-.755c-2.869-1.657-6.54-.673-8.196 2.196s-.673 6.539 2.196 8.196l9.008 5.201-9.008 5.201c-2.87 1.657-3.853 5.327-2.196 8.196 1.111 1.925 3.128 3.001 5.202 3.001 1.018 0 2.05-.259 2.995-.805l1.315-.759c-.451-.407-.852-.882-1.172-1.436z"/></g><g><path d="m220.45 362.903v-10.402c0-1.692.703-3.218 1.83-4.308-1.08-1.045-2.549-1.692-4.17-1.692-3.313 0-6 2.687-6 6v5.587z"/><path d="m232.45 362.903 7.701-4.446c-1.88-1.707-4.716-2.093-7.033-.755l-.668.386z"/><path d="m232.45 383.688v4.815l.668.386c.945.545 1.977.805 2.995.805 1.476 0 2.918-.555 4.03-1.564z"/><path d="m220.45 394.09v-10.402l-8.34 4.815v5.587c0 3.313 2.687 6 6 6 1.622 0 3.09-.646 4.17-1.692-1.127-1.09-1.83-2.616-1.83-4.308z"/><path d="m203.245 386.693c-1.657-2.87-.673-6.54 2.196-8.196l9.008-5.201-9.008-5.201c-2.87-1.657-3.853-5.327-2.196-8.196.319-.553.715-1.034 1.163-1.442l-1.307-.755c-2.869-1.657-6.539-.673-8.196 2.196-1.657 2.87-.673 6.539 2.196 8.196l9.008 5.201-9.008 5.201c-2.87 1.657-3.853 5.327-2.196 8.196 1.111 1.925 3.128 3.001 5.202 3.001 1.018 0 2.05-.259 2.995-.805l1.315-.759c-.451-.407-.852-.882-1.172-1.436z"/></g><g><path d="m279.55 362.903v-10.402c0-1.692.703-3.218 1.83-4.308-1.08-1.045-2.549-1.692-4.17-1.692-3.313 0-6 2.687-6 6v5.587z"/><path d="m262.345 386.693c-1.657-2.87-.673-6.54 2.196-8.196l9.008-5.201-9.008-5.201c-2.87-1.657-3.853-5.327-2.196-8.196.319-.553.715-1.034 1.163-1.442l-1.307-.755c-2.87-1.657-6.539-.673-8.196 2.196-1.657 2.87-.673 6.539 2.196 8.196l9.008 5.201-9.008 5.201c-2.87 1.657-3.853 5.327-2.196 8.196 1.111 1.925 3.128 3.001 5.202 3.001 1.018 0 2.05-.259 2.995-.805l1.315-.759c-.45-.407-.852-.882-1.172-1.436z"/><path d="m291.55 362.903 7.702-4.446c-1.88-1.707-4.716-2.093-7.033-.755l-.669.386z"/><path d="m291.55 383.688v4.815l.669.386c.945.545 1.977.805 2.995.805 1.476 0 2.918-.555 4.03-1.564z"/><path d="m279.55 394.09v-10.402l-8.34 4.815v5.587c0 3.313 2.687 6 6 6 1.622 0 3.09-.646 4.17-1.692-1.127-1.09-1.83-2.616-1.83-4.308z"/></g><g><path d="m338.65 362.903v-10.402c0-1.692.703-3.218 1.83-4.308-1.08-1.045-2.549-1.692-4.17-1.692-3.313 0-6 2.687-6 6v5.587z"/><path d="m350.65 362.903 7.702-4.446c-1.88-1.707-4.716-2.093-7.033-.755l-.669.386z"/><path d="m350.65 383.688v4.815l.669.386c.945.545 1.977.805 2.995.805 1.476 0 2.918-.555 4.03-1.564z"/><path d="m321.445 386.693c-1.657-2.87-.673-6.54 2.196-8.196l9.008-5.201-9.008-5.201c-2.87-1.657-3.853-5.327-2.196-8.196.319-.553.715-1.034 1.163-1.441l-1.307-.755c-2.869-1.657-6.539-.673-8.196 2.196-1.657 2.87-.673 6.539 2.196 8.196l9.008 5.201-9.008 5.201c-2.87 1.657-3.853 5.327-2.196 8.196 1.111 1.925 3.128 3.001 5.202 3.001 1.018 0 2.05-.259 2.995-.805l1.315-.759c-.45-.408-.852-.883-1.172-1.437z"/><path d="m338.65 394.09v-10.402l-8.34 4.815v5.587c0 3.313 2.687 6 6 6 1.622 0 3.09-.646 4.17-1.692-1.127-1.09-1.83-2.616-1.83-4.308z"/></g></g><path d="m133 415.971v-85.351c0-8.284 6.716-15 15-15h-48c-8.284 0-15 6.716-15 15v85.351c0 8.284 6.716 15 15 15h48c-8.284 0-15-6.716-15-15z" fill="#fd5426"/><g fill="#fff"><path d="m190.555 359.898c-1.657-2.869-5.327-3.854-8.196-2.196l-9.008 5.201v-10.402c0-3.313-2.687-6-6-6s-6 2.687-6 6v10.402l-9.009-5.201c-2.869-1.657-6.54-.673-8.196 2.196s-.673 6.539 2.196 8.196l9.008 5.201-9.008 5.201c-2.87 1.657-3.853 5.327-2.196 8.196 1.111 1.925 3.128 3.001 5.202 3.001 1.018 0 2.05-.259 2.995-.805l9.009-5.201v10.402c0 3.313 2.687 6 6 6s6-2.687 6-6v-10.402l9.008 5.201c.945.545 1.977.805 2.995.805 2.073 0 4.09-1.076 5.202-3.001 1.657-2.87.673-6.54-2.196-8.196l-9.008-5.201 9.008-5.201c2.867-1.656 3.85-5.326 2.194-8.196z"/><path d="m249.655 359.898c-1.657-2.869-5.327-3.854-8.196-2.196l-9.008 5.201v-10.402c0-3.313-2.687-6-6-6s-6 2.687-6 6v10.402l-9.009-5.201c-2.869-1.657-6.539-.673-8.196 2.196-1.657 2.87-.673 6.539 2.196 8.196l9.008 5.201-9.008 5.201c-2.87 1.657-3.853 5.327-2.196 8.196 1.111 1.925 3.128 3.001 5.202 3.001 1.018 0 2.05-.259 2.995-.805l9.009-5.201v10.402c0 3.313 2.687 6 6 6s6-2.687 6-6v-10.402l9.008 5.201c.945.545 1.977.805 2.995.805 2.073 0 4.09-1.076 5.202-3.001 1.657-2.87.673-6.54-2.196-8.196l-9.008-5.201 9.008-5.201c2.867-1.656 3.851-5.326 2.194-8.196z"/><path d="m308.755 359.898c-1.657-2.869-5.327-3.854-8.196-2.196l-9.009 5.201v-10.402c0-3.313-2.687-6-6-6s-6 2.687-6 6v10.402l-9.008-5.201c-2.87-1.657-6.539-.673-8.196 2.196-1.657 2.87-.673 6.539 2.196 8.196l9.008 5.201-9.008 5.201c-2.87 1.657-3.853 5.327-2.196 8.196 1.111 1.925 3.128 3.001 5.202 3.001 1.018 0 2.05-.259 2.995-.805l9.008-5.201v10.402c0 3.313 2.687 6 6 6s6-2.687 6-6v-10.402l9.009 5.201c.945.545 1.977.805 2.995.805 2.073 0 4.09-1.076 5.202-3.001 1.657-2.87.673-6.54-2.196-8.196l-9.008-5.201 9.008-5.201c2.867-1.656 3.851-5.326 2.194-8.196z"/><path d="m365.659 378.497-9.008-5.201 9.008-5.201c2.87-1.657 3.853-5.327 2.196-8.196s-5.327-3.854-8.196-2.196l-9.009 5.201v-10.402c0-3.313-2.687-6-6-6s-6 2.687-6 6v10.402l-9.008-5.201c-2.869-1.657-6.539-.673-8.196 2.196-1.657 2.87-.673 6.539 2.196 8.196l9.008 5.201-9.008 5.201c-2.87 1.657-3.853 5.327-2.196 8.196 1.111 1.925 3.128 3.001 5.202 3.001 1.018 0 2.05-.259 2.995-.805l9.008-5.201v10.402c0 3.313 2.687 6 6 6s6-2.687 6-6v-10.402l9.009 5.201c.945.545 1.977.805 2.995.805 2.073 0 4.09-1.076 5.202-3.001 1.655-2.87.671-6.54-2.198-8.196z"/></g></g></g></svg>