<svg id="Capa_1" enable-background="new 0 0 512 512" height="512" viewBox="0 0 512 512" width="512" xmlns="http://www.w3.org/2000/svg"><g><g><g><path d="m115.444 289.087c4.297 22.591-20.155 40.415-24.754 62.946-2.053 10.061.018 20.454.027 30.723.018 20.045-7.815 40.243-3.163 59.74 4.058 17.004 17.344 30.722 32.813 38.865s33.02 11.384 50.381 13.438c63.98 7.571 128.818.408 192.303-10.57 13.364-2.311 27.098-4.946 38.452-12.364s19.855-20.855 17.429-34.199c-2.226-12.244-12.541-21.074-19.662-31.279-10.884-15.597-14.518-36.042-9.677-54.434 5.92-22.491 23.747-44.532 15.656-66.337-7.267-19.585-32.582-27.965-39.538-47.663-5.586-15.818 2.494-34.41-4.456-49.679-6.224-13.676-22.382-19.781-37.303-21.552-54.618-6.482-104.639 24.643-157.322 32.881-18.025 2.819-33.106 2.607-44.143 18.78-6.123 8.973-11.821 22.11-13.979 32.633-3.133 15.278 4.232 23.857 6.936 38.071z" fill="#365e7d"/></g><g><path d="m225.945 502.734c-18.421 0-37.12-.928-55.765-3.135-16.294-1.928-35.221-5.094-52.063-13.962-18.342-9.655-31.193-24.971-35.262-42.019-3.069-12.856-1.126-25.772.753-38.265 1.123-7.468 2.284-15.19 2.277-22.592-.003-3.265-.223-6.526-.458-9.979-.477-7.063-.97-14.369.528-21.714 2.098-10.281 7.778-19.334 13.27-28.09 7.002-11.162 13.616-21.706 11.47-32.988-.854-4.489-2.251-8.49-3.6-12.359-2.781-7.966-5.656-16.205-3.32-27.584 2.246-10.956 8.163-24.775 14.72-34.386 10.764-15.772 25.149-17.74 40.379-19.824 2.282-.311 4.619-.632 7.008-1.005 19.525-3.053 39.197-9.482 58.222-15.7 32.142-10.502 65.369-21.362 100.417-17.206 11.864 1.409 32.983 6.444 41.13 24.35 4.13 9.07 3.608 18.745 3.102 28.1-.426 7.889-.827 15.341 1.513 21.97 3.075 8.71 10.533 15.152 18.427 21.975 8.38 7.241 17.046 14.728 21.085 25.615 6.186 16.67-.862 32.872-7.677 48.54-2.969 6.828-6.041 13.886-7.836 20.708-4.5 17.09-1.148 35.946 8.965 50.44 1.917 2.748 4.075 5.385 6.36 8.179 6.035 7.376 12.276 15.006 14.092 25.001 2.958 16.264-7.682 31.362-19.539 39.108-11.769 7.689-25.201 10.473-40.27 13.081-39.245 6.786-87.535 13.741-137.928 13.741zm-105.755-214.55c2.855 15.008-5.093 27.677-12.779 39.929-5.033 8.026-10.239 16.324-11.986 24.886-1.238 6.066-.808 12.413-.355 19.132.234 3.459.477 7.035.48 10.621.008 8.128-1.208 16.217-2.384 24.039-1.823 12.112-3.544 23.553-.911 34.584 3.421 14.336 14.489 27.353 30.365 35.712 15.443 8.13 33.284 11.091 48.697 12.914 68.414 8.094 137.962-1.376 190.913-10.531 13.992-2.421 26.407-4.968 36.632-11.65 9.184-6 17.482-17.383 15.318-29.289-1.371-7.538-6.565-13.889-12.065-20.612-2.299-2.811-4.678-5.717-6.806-8.767-11.716-16.79-15.599-38.633-10.387-58.43 1.985-7.537 5.204-14.942 8.32-22.103 6.331-14.555 12.31-28.301 7.479-41.322-3.176-8.561-10.544-14.926-18.344-21.665-8.501-7.347-17.291-14.942-21.222-26.069-2.98-8.446-2.507-17.222-2.049-25.711.464-8.567.9-16.661-2.248-23.575-6.419-14.105-25.547-17.815-33.474-18.756-32.906-3.908-65.128 6.618-96.278 16.796-19.388 6.335-39.436 12.888-59.729 16.06-2.454.384-4.852.712-7.194 1.032-14.723 2.015-25.36 3.47-33.705 15.698-5.812 8.515-11.253 21.214-13.237 30.879-1.799 8.77.31 14.811 2.979 22.46 1.466 4.203 2.982 8.547 3.97 13.738z" fill="#172836"/></g></g><g><g><g><g><g><g><g><path d="m428.056 507.122c-33.613-70.124-98.06-117.57-172.056-117.57s-138.443 47.446-172.056 117.57z" fill="#fdd234"/></g><g><path d="m428.057 511.953h-344.114c-1.661 0-3.204-.852-4.089-2.257-.884-1.406-.985-3.166-.267-4.663 35.573-74.211 103.171-120.313 176.413-120.313s140.84 46.102 176.413 120.313c.717 1.497.617 3.257-.267 4.663-.885 1.405-2.428 2.257-4.089 2.257zm-336.3-9.663h328.486c-34.738-66.765-97.043-107.907-164.243-107.907s-129.505 41.142-164.243 107.907z" fill="#172836"/></g></g><g><g><path d="m321.969 442.321c-9.122 7.145-18.936 13.369-29.154 18.822-21.499 11.473-44.676 19.655-68.214 25.801-23.73 6.196-47.982 10.33-72.351 13.002-4.744.52-9.495.974-14.25 1.382h280.649c-18.324-34.637-44.14-62.231-74.191-80.573-6.57 8.03-14.349 15.19-22.489 21.566z" fill="#f8b737"/></g></g><g><g><path d="m258.022 438.193h-6.172c-20.025 0-36.258-16.233-36.258-36.258v-104.105h78.688v104.104c.001 20.025-16.233 36.259-36.258 36.259z" fill="#ffddce"/></g><g><path d="m258.023 443.024h-6.172c-22.656 0-41.089-18.433-41.089-41.089v-104.105c0-2.669 2.163-4.832 4.832-4.832h78.687c2.669 0 4.832 2.163 4.832 4.832v104.104c-.001 22.656-18.434 41.09-41.09 41.09zm-37.598-140.362v99.272c0 17.329 14.097 31.426 31.426 31.426h6.172c17.329 0 31.426-14.097 31.426-31.426v-99.272z" fill="#172836"/></g></g><g><g><path d="m278.156 303.625c.1 4.989-.091 9.986-.396 14.962-.375 6.116-.925 12.22-1.346 18.333-.451 6.552-.965 13.103-1.745 19.625-1.528 12.781-4.025 25.637-9.414 37.406-5.388 11.768-13.893 21.787-25.129 28.329-2.286 1.331-4.676 2.493-7.114 3.549 5.19 4.1 11.725 6.569 18.837 6.569h6.171c16.798 0 30.463-13.666 30.463-30.463v-98.309h-10.327z" fill="#ffccb5"/></g></g><g><g><path d="m378.993 158.182c-6.432-1.138-13.009 1.601-18.784 7.089v-21.906c0-48.591-39.39-87.981-87.981-87.981h-36.709c-48.591 0-87.981 39.39-87.981 87.981v20.029c-5.236-4.224-11.003-6.213-16.658-5.213-15.036 2.66-23.575 25.444-19.074 50.888 4.502 25.445 20.34 43.916 35.375 41.256.28-.049.541-.154.816-.217 19.058 58.848 59.216 89.344 106.544 89.468s87.486-34.995 105.251-90.053c.938.348 1.901.625 2.898.802 15.036 2.66 30.874-15.811 35.375-41.256 4.503-25.443-4.036-48.226-19.072-50.887z" fill="#ffddce"/></g><g><path d="m254.794 344.409c-.09 0-.175 0-.264 0-50.443-.132-90.301-32.504-109.852-88.999-.143.003-.286.005-.429.005-16.632.002-32.511-19.009-37.198-45.503-2.326-13.145-1.458-26.116 2.444-36.525 4.226-11.277 11.522-18.366 20.546-19.962 4.199-.741 8.481-.233 12.667 1.475v-11.535c0-51.177 41.635-92.813 92.813-92.813h36.709c51.177 0 92.813 41.635 92.813 92.813v12.537c4.86-2.468 9.918-3.339 14.794-2.477 9.023 1.596 16.319 8.685 20.546 19.962 3.902 10.409 4.77 23.38 2.444 36.525-4.937 27.911-22.279 47.494-39.858 45.341-19.259 55.143-60.372 89.154-108.175 89.156zm-106.794-99.132c2.053 0 3.937 1.316 4.594 3.345 17.685 54.609 54.848 85.999 101.96 86.124h.237c44.683 0 83.138-33.197 100.403-86.704.406-1.255 1.304-2.288 2.49-2.864 1.183-.576 2.554-.642 3.789-.182.731.271 1.405.458 2.057.574 12.202 2.156 25.816-14.946 29.778-37.34 2.029-11.467 1.326-22.637-1.977-31.451-2.979-7.947-7.66-12.861-13.18-13.838-5.901-1.041-11.205 2.595-14.614 5.834-1.398 1.329-3.452 1.703-5.234.937-1.774-.763-2.925-2.509-2.925-4.44v-21.906c0-45.849-37.301-83.149-83.149-83.149h-36.709c-45.849 0-83.149 37.301-83.149 83.149v20.03c0 1.861-1.068 3.556-2.748 4.358-1.677.804-3.668.571-5.118-.598-3.004-2.424-7.656-5.119-12.782-4.215-5.521.977-10.201 5.89-13.18 13.838-3.303 8.814-4.006 19.984-1.977 31.451 3.949 22.32 17.501 39.386 29.655 37.36.285-.085.491-.142.7-.19.361-.082.722-.123 1.079-.123z" fill="#172836"/></g></g><g><g><path d="m377.984 163.889c-5.511-.975-10.535 2.498-13.783 5.583-1.679 1.597-4.149 2.039-6.277 1.125-2.129-.914-3.509-3.009-3.509-5.325v-21.905c0-34.847-21.811-64.678-52.49-76.612.158 1.887.241 3.781.222 5.679-.392 38.927-24.505 69.442-32.862 105.87-3.106 13.539-3.747 27.477-3.241 41.322 1.536 41.978-2.425 80.683-39.559 107.255-.915.655-1.852 1.263-2.8 1.849 9.681 3.293 20.006 5.025 30.873 5.053h.233c44.253 0 82.356-32.942 99.488-86.037.485-1.504 1.563-2.744 2.985-3.434s3.064-.769 4.546-.219c.671.249 1.29.422 1.891.528 11.671 2.063 24.789-14.679 28.66-36.558 3.87-21.882-2.714-42.111-14.377-44.174z" fill="#ffccb5"/></g></g><g><circle cx="209.212" cy="190.138" fill="#172836" r="13.466"/></g><g><circle cx="300.484" cy="190.138" fill="#172836" r="13.466"/></g><g><path d="m230.48 170.806h-42.535c-2.669 0-4.832-2.163-4.832-4.832s2.163-4.832 4.832-4.832h42.535c2.669 0 4.832 2.163 4.832 4.832-.001 2.67-2.163 4.832-4.832 4.832z" fill="#172836"/></g><g><path d="m321.929 170.806h-42.535c-2.669 0-4.832-2.163-4.832-4.832s2.163-4.832 4.832-4.832h42.535c2.669 0 4.832 2.163 4.832 4.832-.001 2.67-2.163 4.832-4.832 4.832z" fill="#172836"/></g><g><path d="m264.509 236.733c-.016 0-.031 0-.046 0-2.669-.025-4.811-2.208-4.788-4.876l.186-20.188c.025-2.653 2.183-4.788 4.83-4.788h.046c2.669.025 4.811 2.208 4.788 4.876l-.186 20.188c-.025 2.654-2.183 4.788-4.83 4.788z" fill="#172836"/></g><g><path d="m254.937 279.006c-10.453 0-20.904-1.74-30.854-5.222l-2.642-.925c-2.52-.881-3.847-3.638-2.966-6.156s3.639-3.844 6.156-2.966l2.644.925c17.839 6.244 37.486 6.244 55.322 0l2.647-.925c2.527-.878 5.275.448 6.156 2.966.881 2.52-.448 5.275-2.966 6.156l-2.645.925c-9.948 3.48-20.401 5.222-30.852 5.222z" fill="#172836"/></g></g><g><path d="m189.352 191.918c-2.23 0-4.234-1.552-4.72-3.82-.558-2.609 1.103-5.178 3.712-5.738l20.283-4.346c2.614-.55 5.178 1.103 5.738 3.712.558 2.609-1.103 5.178-3.712 5.738l-20.283 4.346c-.341.072-.682.108-1.018.108z" fill="#172836"/></g><g><path d="m321.199 193.366c-.335 0-.676-.036-1.018-.109l-20.283-4.346c-2.609-.56-4.27-3.128-3.712-5.738s3.122-4.267 5.738-3.712l20.283 4.346c2.609.56 4.27 3.128 3.712 5.738-.486 2.269-2.491 3.821-4.72 3.821z" fill="#172836"/></g></g><g><path d="m141.269 221.233c-.679 0-1.368-.145-2.026-.448-8.023-3.713-8.993-15.506-9.275-26.267l-.041-1.467c-.091-2.667 1.996-4.904 4.662-4.995 2.683-.068 4.904 1.996 4.995 4.662l.044 1.549c.368 14.135 2.46 17.188 3.673 17.749 2.422 1.121 3.476 3.992 2.356 6.414-.816 1.764-2.564 2.803-4.388 2.803z" fill="#172836"/></g><g><path d="m367.834 221.233c-1.824 0-3.572-1.04-4.388-2.804-1.12-2.422-.066-5.292 2.356-6.414 1.213-.561 3.304-3.614 3.672-17.749l.044-1.549c.091-2.666 2.383-4.722 4.995-4.662 2.666.091 4.753 2.328 4.662 4.995l-.041 1.467c-.282 10.761-1.252 22.554-9.275 26.267-.655.305-1.345.449-2.025.449z" fill="#172836"/></g></g></g><g><circle cx="191.468" cy="229.928" fill="#f4a8b2" r="13.292"/></g><g><circle cx="322.617" cy="229.928" fill="#f4a8b2" r="13.292"/></g></g><g><g><path d="m244.233 102.512c21.087-6.31 43.214-15.09 55.271-33.505-1.305 14.674 6.541 28.43 14.113 41.068 13.237 22.093 26.852 44.633 46.663 61.091 3.978-13.863 14.287-34.041 14.067-48.462-.689-45.192-22.372-90.291-65.769-106.841-51.002-19.45-116.601-13.61-154.766 22.94-11.621 11.129-22.74 44.532-22.711 60.179.035 19.273-2.346 85.954 31.091 55.207 12.217-11.234 19.482-25.233 34.265-33.988 14.69-8.699 31.566-12.839 47.776-17.689z" fill="#365e7d"/></g><g><path d="m360.28 175.998c-1.114 0-2.208-.385-3.087-1.115-20.657-17.161-35.034-41.154-47.72-62.324-5.077-8.474-11.541-19.262-13.963-31.102-13.451 13.334-32.42 20.456-49.891 25.684-2.416.723-4.847 1.43-7.284 2.139-13.485 3.924-27.43 7.982-39.414 15.078-8.476 5.02-14.364 12.015-20.599 19.419-3.935 4.671-8.002 9.503-12.859 13.968-9.07 8.342-17.085 11.062-23.812 8.092-14.448-6.384-15.52-35.891-15.391-63.047.006-1.408.013-2.683.011-3.798-.031-17.279 11.928-51.923 24.201-63.678 37.339-35.758 103.062-45.614 159.829-23.965 21.448 8.18 39.21 23.666 51.365 44.784 11.087 19.264 17.144 42.258 17.513 66.498.164 10.717-4.788 23.806-9.155 35.355-1.994 5.275-3.879 10.258-5.099 14.512-.45 1.57-1.661 2.804-3.221 3.286-.468.143-.947.214-1.424.214zm-60.775-111.823c.528 0 1.062.087 1.584.267 2.093.727 3.424 2.785 3.227 4.992-1.126 12.656 5.423 24.768 13.444 38.158 11.659 19.456 23.677 39.51 40.215 55.084.928-2.605 1.955-5.316 3.01-8.108 4.061-10.741 8.666-22.916 8.529-31.789-.582-38.173-17.348-85.12-62.659-102.402-52.554-20.042-115.514-10.826-149.701 21.917-10.278 9.843-21.249 41.689-21.222 56.679.002 1.136-.005 2.432-.011 3.863-.058 12.318-.237 49.803 9.633 54.163 2.815 1.239 7.554-1.021 13.367-6.365 4.402-4.048 8.268-8.639 12.007-13.081 6.48-7.694 13.179-15.653 23.068-21.508 13.035-7.721 27.576-11.952 41.638-16.043 2.413-.703 4.819-1.403 7.211-2.119 19.663-5.884 41.292-14.231 52.615-31.524.914-1.391 2.449-2.184 4.045-2.184z" fill="#172836"/></g></g><g><g><path d="m165.093 394.768c-1.056 3.263-1.313 6.806-2.905 9.843-4.197 8.006-15.643 9.365-20.939 16.69-6.112 8.454-1.365 20.329 4.49 28.963 24.285 35.81 67.74 58.6 110.882 55.301s83.674-34 95.885-75.509c1.242-4.222 2.109-9.12-.384-12.746-4.332-6.302-15.281-4.137-20.028-10.134-2.05-2.59-2.396-6.088-2.807-9.365-1.929-15.377-10.208-33.026-25.645-34.393-12.221-1.082-22.301 8.608-32.526 15.389-18.096 12.001-45.161 18.637-64.022 6.672-8.099-5.138-5.481-9.362-17.069-8.752-10.153.536-21.792 8.336-24.932 18.041z" fill="#dd636e"/></g><g><path d="m248.267 510.716c-41.236 0-82.302-22.015-106.527-57.739-9.029-13.312-10.635-25.89-4.407-34.506 3.108-4.298 7.656-6.821 11.67-9.048 3.94-2.185 7.343-4.074 8.905-7.054.705-1.343 1.098-3.089 1.513-4.935.302-1.34.613-2.724 1.074-4.152 3.602-11.126 16.733-20.717 29.275-21.378 9.18-.48 12.011 1.853 15.299 5.472 1.158 1.274 2.353 2.59 4.615 4.025 17.125 10.868 42.469 4.185 58.763-6.618 1.93-1.28 3.845-2.661 5.873-4.122 8.501-6.132 18.147-13.083 29.75-12.052 17.584 1.557 27.744 20.511 30.012 38.604l.061.488c.324 2.611.631 5.077 1.741 6.478 1.313 1.661 4.242 2.414 7.343 3.21 4.295 1.104 9.64 2.477 12.877 7.186 3.764 5.473 2.395 12.236 1.038 16.848-12.634 42.95-53.818 75.421-100.151 78.963-2.904.219-5.818.33-8.724.33zm-78.578-114.46c-.326 1.005-.576 2.119-.841 3.297-.51 2.266-1.087 4.835-2.383 7.303-2.903 5.541-8.149 8.451-12.776 11.017-3.435 1.906-6.678 3.706-8.525 6.26-5.269 7.285 1.442 18.806 4.572 23.421 24.023 35.424 65.834 56.294 106.516 53.195 41.742-3.191 80.274-33.494 91.617-72.055.799-2.718 1.697-6.57.269-8.647-1.184-1.724-4.028-2.454-7.318-3.3-4.305-1.106-9.182-2.359-12.516-6.571-2.789-3.523-3.323-7.826-3.753-11.285l-.06-.477c-1.787-14.245-9.058-29.1-21.277-30.182-8.026-.703-15.42 4.621-23.246 10.264-2.013 1.452-4.096 2.954-6.183 4.338-19.438 12.892-48.4 19.975-69.282 6.725-3.36-2.133-5.226-4.187-6.588-5.686-1.859-2.048-2.359-2.597-7.638-2.32-8.578.452-18.2 7.322-20.588 14.703z" fill="#172836"/></g></g><g><g><path d="m348.139 420.047c-1.184-1.724-4.028-2.454-7.318-3.3-4.305-1.106-9.182-2.359-12.516-6.571-2.789-3.523-3.323-7.826-3.753-11.285l-.06-.477c-1.787-14.245-9.058-29.1-21.277-30.182-7.323-.642-14.121 3.737-21.2 8.795-.572 1.789-1.169 3.568-1.82 5.32-1.987 5.344-4.901 10.242-7.671 15.202-2.833 5.073-5.336 10.288-6.821 15.93-.989 3.759-1.304 7.723-.093 11.468 2.051 6.341 7.874 10.59 12.308 15.219 4.788 5 9.811 11.656 8.694 18.988-1.09 7.153-6.992 12.658-12.503 16.772-13.329 9.951-29.724 15.937-45.782 19.678-2.755.642-5.53 1.224-8.318 1.744 11.847 3.099 24.094 4.327 36.243 3.401 41.742-3.191 80.274-33.494 91.617-72.055.801-2.718 1.699-6.57.27-8.647z" fill="#dd505c"/></g></g><g><path d="m244.605 445.153c-2.188 0-4.393-.061-6.618-.184-23.561-1.299-48.283-8.37-71.498-20.446-2.367-1.232-3.287-4.149-2.056-6.516 1.23-2.365 4.144-3.292 6.516-2.056 22.005 11.447 45.371 18.145 67.569 19.371 23.216 1.266 44.216-4.756 60.713-17.452 2.119-1.628 5.148-1.233 6.776.881 1.628 2.115 1.233 5.149-.881 6.776-16.761 12.899-37.572 19.626-60.521 19.626z" fill="#172836"/></g></g></svg>