<svg fill="none" height="512" viewBox="0 0 24 24" width="512" xmlns="http://www.w3.org/2000/svg" xmlns:xlink="http://www.w3.org/1999/xlink"><clipPath id="clip0"><path d="m0 0h24v24h-24z"/></clipPath><g clip-path="url(#clip0)" fill="rgb(0,0,0)"><path d="m6.19995 5.19994c0-1.74772 1.45228-3.2 3.2-3.2 1.38545 0 2.58515.91258 3.02305 2.16149.6247-.21454 1.2911-.33932 1.9837-.35895-.6168-2.18302-2.6378-3.80254104-5.00675-3.80254104-2.85229 0-5.2 2.34771104-5.2 5.20000104 0 1.49262.64293 2.84707 1.66464 3.79921-3.42456 1.41025-5.86459 4.79565-5.86459 8.70065 0 .5522.447715 1 1 1 .55228 0 1-.4478 1-1 0-3.5348 2.55653-6.5393 5.90017-7.244.00507-.79117.14733-1.54985.40418-2.25342-1.21954-.45401-2.1044-1.63823-2.1044-3.00244z"/><path d="m22 .999939c0-.552285-.4477-1.00000004-1-1.00000004s-1 .44771504-1 1.00000004v1.000001h-1c-.5523 0-1 .44771-1 1 0 .55228.4477 1 1 1h1v1c0 .55228.4477 1 1 1s1-.44772 1-1v-1h1c.5523 0 1-.44772 1-1 0-.55229-.4477-1-1-1h-1z"/><path clip-rule="evenodd" d="m18.0702 14.2729c1.0618-.9521 1.7298-2.3344 1.7298-3.8728 0-2.87184-2.3281-5.19997-5.2-5.19997-2.8718 0-5.19998 2.32813-5.19998 5.19997 0 1.5384.66798 2.9207 1.72978 3.8727-3.45878 1.394-5.92985 4.7975-5.92985 8.7272 0 .5523.44772 1 1 1 .55229 0 1-.4477 1-1 0-4.0394 3.33865-7.3863 7.37535-7.3999h.0247.0247c4.0366.0136 7.3753 3.3605 7.3753 7.3999 0 .5523.4477 1 1 1s1-.4477 1-1c0-3.9297-2.471-7.3332-5.9298-8.7271zm-3.4702-7.07277c-1.7673 0-3.2 1.4327-3.2 3.19997 0 1.76 1.4209 3.1882 3.1781 3.2l.0219-.0001c.0073 0 .0146 0 .0219.0001 1.7572-.0118 3.1781-1.4399 3.1781-3.2 0-1.76728-1.4327-3.19997-3.2-3.19997z" fill-rule="evenodd"/></g></svg>