<?xml version="1.0" encoding="UTF-8"?>
<svg xmlns="http://www.w3.org/2000/svg" id="line" viewBox="0 0 64 64" width="512" height="512"><path d="M16.999,25H39a2.00229,2.00229,0,0,0,2-2V17a2.00229,2.00229,0,0,0-2-2H16.999a2.0023,2.0023,0,0,0-2,2v6A2.0023,2.0023,0,0,0,16.999,25Zm0-8H39l.00146,6H16.999Z"/><path d="M12,33H44a1,1,0,0,0,0-2H12a1,1,0,0,0,0,2Z"/><path d="M32,39H12a1,1,0,0,0,0,2H32a1,1,0,0,0,0-2Z"/><path d="M32,47H12a1,1,0,0,0,0,2H32a1,1,0,0,0,0-2Z"/><path d="M49,37.059V12a1.00261,1.00261,0,0,0-.34131-.75293l-8-7A1.00251,1.00251,0,0,0,40,4H10A3.00328,3.00328,0,0,0,7,7V57a3.00328,3.00328,0,0,0,3,3H46a3.00328,3.00328,0,0,0,3-3V54.941a8.99632,8.99632,0,0,0,0-17.882ZM41,7.204,45.3382,11H41ZM47,57a1.001,1.001,0,0,1-1,1H10a1.001,1.001,0,0,1-1-1V7a1.001,1.001,0,0,1,1-1H39v6a.99974.99974,0,0,0,1,1h7V37.059a8.99632,8.99632,0,0,0,0,17.882Zm1-4a7,7,0,1,1,7-7A7.00818,7.00818,0,0,1,48,53Z"/><path d="M48.02,41.43945a1,1,0,0,0,0-2h-.01025a1,1,0,0,0,.01025,2Z"/><path d="M42.45947,45h-.01025a1.00514,1.00514,0,1,0,.01025,0Z"/><path d="M48.02,50.56055h-.01025a1.00514,1.00514,0,1,0,.01025,0Z"/><path d="M53.58057,45h-.01026a1.00514,1.00514,0,1,0,.01026,0Z"/><path d="M50.42676,45H49V42.94238a1,1,0,0,0-2,0V46a.99974.99974,0,0,0,1,1h2.42676a1,1,0,0,0,0-2Z"/></svg>
