<svg id="Capa_1" enable-background="new 0 0 512 512" height="512" viewBox="0 0 512 512" width="512" xmlns="http://www.w3.org/2000/svg"><g id="XMLID_218_"><path id="XMLID_219_" d="m481.918 35.143h-451.837c-16.586 0-30.081 13.495-30.081 30.082v311.265c0 16.587 13.495 30.082 30.081 30.082h20.123v60.286c0 5.542 4.504 10 9.998 10 2.378 0 4.728-.848 6.587-2.475l77.499-67.812h337.63c16.587 0 30.082-13.495 30.082-30.082v-311.264c0-16.587-13.495-30.082-30.082-30.082zm10.082 341.346c0 5.56-4.522 10.082-10.082 10.082h-341.387c-2.422 0-4.762.879-6.585 2.475l-63.742 55.773v-48.248c0-5.522-4.477-10-10-10h-30.123c-5.559 0-10.081-4.522-10.081-10.082v-311.264c0-5.56 4.522-10.082 10.081-10.082h451.837c5.56 0 10.082 4.522 10.082 10.082z"/><path id="XMLID_222_" d="m214.682 173.064-6.329 36.898c-.643 3.752.899 7.543 3.978 9.78 3.08 2.238 7.162 2.531 10.531.762l33.138-17.42 33.137 17.421c3.383 1.777 7.465 1.468 10.531-.762 3.079-2.237 4.622-6.028 3.978-9.78l-6.328-36.898 26.808-26.131c2.726-2.657 3.707-6.631 2.531-10.251s-4.306-6.259-8.073-6.807l-37.048-5.383-16.568-33.572c-1.685-3.413-5.161-5.574-8.967-5.574-3.807 0-7.283 2.161-8.967 5.574l-16.568 33.572-37.048 5.383c-3.767.548-6.897 3.186-8.073 6.807-1.176 3.62-.195 7.594 2.531 10.251zm23.861-29.535c3.257-.474 6.073-2.52 7.529-5.471l9.928-20.116 9.928 20.116c1.457 2.951 4.272 4.997 7.529 5.471l22.199 3.226-16.063 15.657c-2.357 2.298-3.433 5.607-2.876 8.852l3.792 22.109-19.856-10.438c-2.913-1.531-6.394-1.531-9.307 0l-19.856 10.438 3.792-22.109c.557-3.244-.519-6.554-2.876-8.852l-16.063-15.657z"/><path id="XMLID_225_" d="m71.674 168.67-4.355 25.395c-.644 3.752.898 7.543 3.978 9.78 3.08 2.238 7.162 2.531 10.531.762l22.806-11.989 22.805 11.989c1.463.769 3.06 1.148 4.652 1.148 6.222 0 10.899-5.614 9.857-11.69l-4.355-25.395 18.45-17.983c2.726-2.657 3.707-6.631 2.531-10.251s-4.306-6.259-8.073-6.807l-25.498-3.704-11.402-23.106c-1.685-3.413-5.161-5.574-8.967-5.574s-7.283 2.161-8.967 5.574l-11.403 23.106-25.498 3.704c-3.767.548-6.897 3.186-8.073 6.807-1.176 3.62-.195 7.594 2.531 10.251zm20.668-19.709c3.257-.474 6.073-2.52 7.529-5.471l4.762-9.649 4.762 9.649c1.457 2.951 4.272 4.997 7.529 5.471l10.648 1.547-7.704 7.51c-2.357 2.298-3.433 5.607-2.876 8.852l1.819 10.607-9.524-5.008c-2.913-1.53-6.393-1.532-9.307 0l-9.524 5.008 1.819-10.607c.557-3.244-.519-6.554-2.876-8.852l-7.705-7.51z"/><path id="XMLID_228_" d="m372.898 168.67-4.355 25.395c-.644 3.752.898 7.543 3.978 9.78 3.079 2.238 7.162 2.531 10.531.762l22.806-11.989 22.805 11.989c3.404 1.788 7.481 1.453 10.531-.762 3.079-2.237 4.622-6.028 3.979-9.78l-4.355-25.395 18.45-17.983c2.726-2.657 3.706-6.631 2.53-10.251-1.177-3.62-4.306-6.259-8.072-6.807l-25.497-3.704-11.403-23.106c-1.685-3.413-5.161-5.574-8.967-5.574s-7.283 2.161-8.967 5.574l-11.403 23.106-25.497 3.704c-3.767.548-6.897 3.186-8.073 6.807-1.176 3.62-.195 7.594 2.531 10.251zm20.668-19.709c3.257-.474 6.073-2.52 7.529-5.471l4.763-9.649 4.762 9.649c1.457 2.951 4.272 4.997 7.529 5.471l10.647 1.547-7.705 7.51c-2.356 2.298-3.432 5.607-2.875 8.852l1.819 10.605-9.523-5.007c-2.913-1.53-6.393-1.532-9.307 0l-9.524 5.007 1.819-10.605c.557-3.244-.519-6.554-2.876-8.852l-7.705-7.51z"/><path id="XMLID_231_" d="m451.796 256.041h-391.592c-5.523 0-10 4.478-10 10 0 5.523 4.477 10 10 10h391.592c5.523 0 10-4.477 10-10 0-5.522-4.478-10-10-10z"/><path id="XMLID_232_" d="m451.796 296.204h-391.592c-5.523 0-10 4.478-10 10s4.477 10 10 10h391.592c5.523 0 10-4.478 10-10s-4.478-10-10-10z"/><path id="XMLID_233_" d="m240.938 336.367h-180.734c-5.523 0-10 4.478-10 10s4.477 10 10 10h180.734c5.523 0 10-4.478 10-10s-4.477-10-10-10z"/></g></svg>